<?xml version="1.0" encoding="UTF-8"?>
<svg id="Layer_2" data-name="Layer 2" xmlns="http://www.w3.org/2000/svg" viewBox="0 0 539.65 426.81">
  <defs>
    <style>
      .cls-1 {
        fill: #4285f4;
      }

      .cls-2 {
        fill: #34a853;
      }

      .cls-3 {
        fill: #fbbc04;
      }

      .cls-4 {
        fill: #fff;
      }

      .cls-5 {
        fill: #ea4335;
      }
    </style>
  </defs>
  <g id="Layer_1-2" data-name="Layer 1">
    <path class="cls-5" d="M63.3,299.94h314.71c34.96,0,63.3,28.34,63.3,63.3h0c0,34.96-28.34,63.3-63.3,63.3H63.3c-34.96,0-63.3-28.34-63.3-63.3h0c0-34.96,28.34-63.3,63.3-63.3Z"/>
    <path class="cls-3" d="M341.28,414.72L86.67,229.73c-28.28-20.55-34.55-60.13-14-88.41h0c20.55-28.28,60.13-34.55,88.41-14l254.61,184.98c28.28,20.55,34.55,60.13,14,88.41h0c-20.55,28.28-60.13,34.55-88.41,14Z"/>
    <path class="cls-2" d="M342.26,43.76l97.25,299.31c10.8,33.25-7.39,68.96-40.64,79.76h0c-33.25,10.8-68.96-7.39-79.76-40.64L221.86,82.88c-10.8-33.25,7.39-68.96,40.64-79.76h0c33.25-10.8,68.96,7.39,79.76,40.64Z"/>
    <path class="cls-1" d="M318.88,343.06L416.14,43.75c10.8-33.25,46.51-51.44,79.76-40.64h0c33.25,10.8,51.44,46.51,40.64,79.76l-97.25,299.31c-10.8,33.25-46.51,51.44-79.76,40.64h0c-33.25-10.8-51.44-46.51-40.64-79.76Z"/>
    <g>
      <circle class="cls-4" cx="281.95" cy="63.76" r="31.59" transform="translate(173.85 331.86) rotate(-80.78)"/>
      <circle class="cls-4" cx="122.94" cy="177.53" r="31.59"/>
      <circle class="cls-4" cx="63.69" cy="363.47" r="31.59" transform="translate(-301.7 415.03) rotate(-88.09)"/>
      <circle class="cls-4" cx="379.42" cy="362.34" r="31.59"/>
      <circle class="cls-4" cx="476.97" cy="62.12" r="31.59"/>
    </g>
  </g>
</svg>