<?xml version="1.0" encoding="UTF-8"?>
<svg id="Layer_2" data-name="Layer 2" xmlns="http://www.w3.org/2000/svg" viewBox="0 0 438.22 434.18">
  <defs>
    <style>
      .cls-1 {
        fill: #21609b;
        fill-rule: evenodd;
      }
    </style>
  </defs>
  <g id="Layer_1-2" data-name="Layer 1">
    <g>
      <path class="cls-1" d="M428.05,322.26l-1.96,5.08c-33.42,65.09-92.65,105.02-177.13,106.78-39.49.81-77.12-9.32-101.7-20.34-53.05-23.84-97.67-68.04-122.04-115.26C-9.74,230.83-16.05,136.65,56.64,66.31c1.12,0-8.82,15.25-7.69,15.25l-2,6.51C-5.43,252.05,155.93,392.57,312.79,376.5c37.7-3.86,85.77-24.51,115.26-54.24"/>
      <path class="cls-1" d="M333.13,254.46c39.46.27,80.68-18.18,105.1-44.07-21.36,54.21-83.19,89.05-166.11,77.97-69.43-9.29-135.57-79.16-142.38-149.17-4.98-50.95,12.77-81.36,42.04-118.25-10.17,19.29-13.97,34.17-14.92,43.66-11.12,110.21,88.04,189.27,176.28,189.85"/>
      <path class="cls-1" d="M434.26,117.57c-6.13,14.07-41.45,40.64-57.05,43.97-61.77,13.16-101.32-16.13-122.05-49.46-3.08-4.98-8.77-18.57-9.79-22.03-8.04-27.32-4.34-68.65,19.63-90.04-7.22,20.34-8.28,43.97-4.47,59.33,2.3,9.29,9.32,25.5,16.34,35.7,12.77,18.58,20.88,23.09,37.29,32.95,7.39,4.44,15.32,8,18.75,8.98,15.56,4.58,48.41,16.65,101.37-19.39"/>
    </g>
  </g>
</svg>