<?xml version="1.0" encoding="UTF-8"?>
<svg id="Layer_1" xmlns="http://www.w3.org/2000/svg" version="1.1" viewBox="0 0 146.9 146.9">
  <!-- Generator: Adobe Illustrator 29.6.1, SVG Export Plug-In . SVG Version: 2.1.1 Build 9)  -->
  <defs>
    <style>
      .st0 {
        fill: #fff;
      }
    </style>
  </defs>
  <path class="st0" d="M116.9,36.9c5-.5,9.9-1.8,14.9-2.3s7.9-1,10.6.2c3.9,1.7,2.1,10.9,1.1,14.3-2.7,8.7-9.1,13.5-18.3,10.3.6,5.4,1.7,10.8,2,16.2.2,4.1-.6,9.8,0,13.5s3.8,6.3,4.7,8.9c12.1,34.8-36.2,50.2-62.4,48.8-24.4-1.3-63.8-18.6-52.1-49.3.8-2.2,4.2-6.8,4.4-8,.6-3.2-.2-8.8,0-12.4s1.3-10,1.6-15c-14.5,4-22.3-10.3-21.2-23s.8-5,2.7-6.1,8.9-1.1,11.9-.9c5.5.5,11.1,1.8,16.5,2.8.3-1.3,2.3-2.9,2-4.1s-3.1-4.1-3.7-5.1c-3.4-6.1-4.2-12.1-2.1-18.8s2.7-7.7,5.9-4.9,2.2,5.2,3,6.6c1.8,3.3,6.7,8.8,10.5,9.5s3.5-1.3,5.1-1.9c11.4-4.4,23.7-5.2,35.5-2s9.8,4,10.4,4c3.1-.2,8.4-5.7,10.1-8.3,1.2-1.8,3.4-8,4.8-8.4,2.7-.8,4,2.8,4.7,4.7,3.3,9.4.5,17.7-5.7,25l3.2,5.7ZM44.6,22.2c-4.3-3-7.7-6.5-10.8-10.8-.9,3.6.2,7.8,1.8,11.1s2.7,4.8,3.7,4.3,3.2-4.2,5.2-4.6ZM115.6,11.4c-1-.2-.7.3-1,.8-3,4.1-5.5,7.4-10.1,9.8l5.4,5c4.5-3.5,6.2-10,5.8-15.6ZM86.1,68.9c-5.3-6.6-11.3-13.8-5.1-22.1,4.1-5.5,7.7-4.9,12.6-7.8,7.4-4.4-5-12.1.1-17.5-7.6-4-17.3-4.8-25.7-3.8-32.4,4-41.1,38.5-40.9,66.3,15.9-13.7,38.6-17.8,59.1-15.2ZM7.5,37.5c-2,10.2,4.5,25.2,17.1,18.5l5.8-16.2c-3.4-1.1-21-4.2-22.9-2.3ZM99.9,50.7c-4.2-4.2-7.2,6.4-3.6,9.8s7-6.5,3.6-9.8ZM123,93.1c-17.5-23.6-63.4-24.5-86.6-9.4-24.1,15.6-18.3,39.3,5.5,50.8,17.5,8.5,40.5,9.2,58.8,2.7,18.5-6.5,37.1-24.2,22.3-44.1Z"/>
  <path class="st0" d="M109.1,96.2c2.7-.4,11.3,0,9.9,4.3-1.2,3.6-5.2.9-5.8,1.4-.7,3.1-1.7,6.3-5.4,6.6s-6.8-2.7-5.6-7.2c.8-2.9,4.1-4.7,6.9-5.1Z"/>
  <path class="st0" d="M35.7,96.2c4.3-.4,9.2.5,10.9,4.8s-1.3,8.6-6.5,7.3-3.4-4-4.4-6.4c-.6-.4-6.2,2.5-5.6-2.8s3.6-2.7,5.5-2.9Z"/>
  <path class="st0" d="M53.2,60.4c-4,4.5-7.9-5.7-4.3-9.7,4.1-4.5,7.9,5.7,4.3,9.7Z"/>
</svg>