<?xml version="1.0" encoding="UTF-8"?>
<svg id="Layer_2" data-name="Layer 2" xmlns="http://www.w3.org/2000/svg" viewBox="0 0 1177.64 298.51">
  <defs>
    <style>
      .cls-1 {
        fill: #28a1ea;
      }

      .cls-2 {
        isolation: isolate;
      }

      .cls-3 {
        fill: #2180c9;
      }
    </style>
  </defs>
  <g id="Layer_1-2" data-name="Layer 1">
    <path class="cls-3" d="M785.6,35.7c0-19.6-16-35.6-35.6-35.6s-35.6,16-35.6,35.6c0,39.2-32,71.2-71.2,71.2s-35.6,16-35.6,35.6,16,35.6,35.6,35.6c45.6,0,71.2,38.4,71.2,76.9v2.8c0,19.6,16,35.6,35.6,35.6s35.6-16,35.6-35.6v-2.8c0-44.1-14.2-83-47-112.5,30.6-25.6,47-64.4,47-106.8"/>
    <path class="cls-3" d="M304.7,257.8c0,19.6,16,35.6,35.6,35.6s35.6-16,35.6-35.6v-115.3c0-39.2,32-71.2,71.2-71.2s71.2,32,71.2,71.2v115.3c0,19.6,16,35.6,35.6,35.6s35.6-16,35.6-35.6v-115.3C589.5,63.5,525.8.1,447.1.1s-142.4,63.4-142.4,142.4v115.3"/>
    <path class="cls-3" d="M817.1,257.8c0,19.6,16,35.6,35.6,35.6s35.6-16,35.6-35.6V35.6c0-19.6-16-35.6-35.6-35.6s-35.6,16-35.6,35.6v222.2"/>
    <path class="cls-3" d="M142.4.1C63.7.1,0,63.8,0,142.5s63.7,142.4,142.4,142.4,50.9-7.1,72.3-19.6c3.6,16,17.4,28.1,34.5,28.1s35.6-16,35.6-35.6v-115.3C284.8,63.8,221.1.1,142.4.1ZM142.4,213.7c-39.2,0-71.2-32-71.2-71.2s32-71.2,71.2-71.2,71.2,32,71.2,71.2-32,71.2-71.2,71.2Z"/>
    <g class="cls-2">
      <path class="cls-1" d="M1145.07,171.8c-17.27-17.69-40.02-42.24-57.29-66.06,4.71,33.94,7.06,64.62,7.06,81.23,0,63.18-31.39,111.55-103.99,111.55-59.64,0-95.35-31.05-95.35-87.36,0-48.38,23.54-87.36,54.54-130.69-27.86,10.47-51.8,17.69-82.4,26.35l-7.06-24.91c36.1-8.66,71.81-18.77,110.26-33.57l16.48,18.05c-30.21,38.63-65.53,95.31-65.53,144.76,0,39.35,27.08,62.09,69.06,62.09,52.19,0,77.69-41.15,77.69-86.28,0-42.6-4.32-82.67-14.13-121.66l21.97-14.08c29.04,37.54,57.68,70.4,86.72,98.92l-18.05,21.66ZM1142.72,77.94c-20.8,0-35.32-14.08-35.32-32.49s14.52-31.77,35.32-31.77,34.92,14.08,34.92,31.77-14.91,32.49-34.92,32.49ZM1162.34,45.45c0-10.83-7.85-17.69-19.23-17.69-12.56,0-20.01,6.86-20.01,17.69s7.85,18.05,20.01,18.05c11.38,0,19.23-7.22,19.23-18.05Z"/>
    </g>
  </g>
</svg>