<?xml version="1.0" encoding="UTF-8"?>
<svg id="Layer_1" xmlns="http://www.w3.org/2000/svg" version="1.1" viewBox="0 0 1200 800">
  <!-- Generator: Adobe Illustrator 30.3.0, SVG Export Plug-In . SVG Version: 2.1.3 Build 182)  -->
  <defs>
    <style>
      .st0 {
        fill: #2180c9;
      }

      .st1 {
        fill: #28a1ea;
        font-family: AppleSDGothicNeo-Regular-KSCpc-EUC-H, 'Apple SD Gothic Neo';
        font-size: 392.4px;
      }
    </style>
  </defs>
  <path class="st0" d="M785.6,311c0-19.6-16-35.6-35.6-35.6s-35.6,16-35.6,35.6c0,39.2-32,71.2-71.2,71.2s-35.6,16-35.6,35.6,16,35.6,35.6,35.6c45.6,0,71.2,38.4,71.2,76.9v2.8c0,19.6,16,35.6,35.6,35.6s35.6-16,35.6-35.6v-2.8c0-44.1-14.2-83-47-112.5,30.6-25.6,47-64.4,47-106.8"/>
  <path class="st0" d="M304.7,533.1c0,19.6,16,35.6,35.6,35.6s35.6-16,35.6-35.6v-115.3c0-39.2,32-71.2,71.2-71.2s71.2,32,71.2,71.2v115.3c0,19.6,16,35.6,35.6,35.6s35.6-16,35.6-35.6v-115.3c0-79-63.7-142.4-142.4-142.4s-142.4,63.4-142.4,142.4v115.3"/>
  <path class="st0" d="M817.1,533.1c0,19.6,16,35.6,35.6,35.6s35.6-16,35.6-35.6v-222.2c0-19.6-16-35.6-35.6-35.6s-35.6,16-35.6,35.6v222.2"/>
  <path class="st0" d="M142.4,275.4C63.7,275.4,0,339.1,0,417.8s63.7,142.4,142.4,142.4,50.9-7.1,72.3-19.6c3.6,16,17.4,28.1,34.5,28.1s35.6-16,35.6-35.6v-115.3c0-78.7-63.7-142.4-142.4-142.4ZM142.4,489c-39.2,0-71.2-32-71.2-71.2s32-71.2,71.2-71.2,71.2,32,71.2,71.2-32,71.2-71.2,71.2Z"/>
  <text class="st1" transform="translate(863.9 572.8)"><tspan x="0" y="0">ぴ</tspan></text>
</svg>