<?xml version="1.0" encoding="UTF-8"?>
<svg id="svg2" xmlns="http://www.w3.org/2000/svg" viewBox="0 0 373.99 147.2">
  <defs>
    <style>
      .cls-1 {
        fill: none;
      }

      .cls-1, .cls-2 {
        font-family: CaveatRoman-Bold, Caveat;
        font-size: 123.24px;
        font-variation-settings: 'wght' 700;
        font-weight: 700;
      }

      .cls-3, .cls-2 {
        fill: #fff;
      }

      .cls-4 {
        letter-spacing: 0em;
      }
    </style>
  </defs>
  <g id="g12">
    <path id="path14" class="cls-3" d="M256.8,41.14c0-6.4-5.24-11.64-11.64-11.64s-11.64,5.24-11.64,11.64c0,12.8-10.47,23.28-23.28,23.28-6.4,0-11.64,5.24-11.64,11.64s5.24,11.64,11.64,11.64c14.9,0,23.28,12.57,23.28,25.14v.93c0,6.4,5.24,11.64,11.64,11.64s11.64-5.24,11.64-11.64v-.93c0-14.43-4.65-27.12-15.36-36.78,10.01-8.38,15.36-21.07,15.36-34.91h0"/>
    <path id="path16" class="cls-3" d="M99.6,113.76c0,6.4,5.23,11.64,11.64,11.64s11.64-5.24,11.64-11.64v-37.71c0-12.8,10.47-23.28,23.27-23.28s23.28,10.47,23.28,23.28v37.71c0,6.4,5.24,11.64,11.64,11.64s11.64-5.24,11.64-11.64v-37.71c0-25.84-20.83-46.55-46.55-46.55s-46.55,20.72-46.55,46.55v37.71"/>
    <path id="path18" class="cls-3" d="M267.11,113.76c0,6.4,5.24,11.64,11.64,11.64s11.64-5.24,11.64-11.64V41.14c0-6.4-5.24-11.64-11.64-11.64s-11.64,5.24-11.64,11.64v72.62"/>
    <path id="path20" class="cls-3" d="M46.55,99.33c-12.8,0-23.28-10.47-23.28-23.27s10.47-23.28,23.28-23.28,23.28,10.47,23.28,23.28-10.47,23.27-23.28,23.27ZM46.55,29.5c-25.72,0-46.55,20.83-46.55,46.55s20.83,46.55,46.55,46.55c8.61,0,16.64-2.33,23.62-6.4,1.16,5.24,5.7,9.19,11.29,9.19,6.4,0,11.64-5.24,11.64-11.64v-37.71c0-25.72-20.83-46.55-46.55-46.55"/>
  </g>
  <text class="cls-2" transform="translate(283.69 109.24)"><tspan class="cls-4" x="0" y="0">f</tspan><tspan x="38.2" y="0">y</tspan></text>
  <text class="cls-1" transform="translate(156.31 99.2)"><tspan class="cls-4" x="0" y="0">f</tspan><tspan x="38.2" y="0">y</tspan></text>
</svg>