<?xml version="1.0" encoding="UTF-8"?>
<svg id="Layer_1" xmlns="http://www.w3.org/2000/svg" version="1.1" viewBox="0 0 1200 800">
  <!-- Generator: Adobe Illustrator 30.3.0, SVG Export Plug-In . SVG Version: 2.1.3 Build 182)  -->
  <defs>
    <style>
      .st0 {
        fill: #28a1ea;
      }

      .st1 {
        isolation: isolate;
      }

      .st2 {
        fill: #2180c9;
      }
    </style>
  </defs>
  <path class="st2" d="M788.6,311.1c0-19.6-16-35.6-35.6-35.6s-35.6,16-35.6,35.6c0,39.2-32,71.2-71.2,71.2s-35.6,16-35.6,35.6,16,35.6,35.6,35.6c45.6,0,71.2,38.4,71.2,76.9v2.8c0,19.6,16,35.6,35.6,35.6s35.6-16,35.6-35.6v-2.8c0-44.1-14.2-83-47-112.5,30.6-25.6,47-64.4,47-106.8"/>
  <path class="st2" d="M307.7,533.2c0,19.6,16,35.6,35.6,35.6s35.6-16,35.6-35.6v-115.3c0-39.2,32-71.2,71.2-71.2s71.2,32,71.2,71.2v115.3c0,19.6,16,35.6,35.6,35.6s35.6-16,35.6-35.6v-115.3c0-79-63.7-142.4-142.4-142.4s-142.4,63.4-142.4,142.4v115.3"/>
  <path class="st2" d="M820.1,533.2c0,19.6,16,35.6,35.6,35.6s35.6-16,35.6-35.6v-222.2c0-19.6-16-35.6-35.6-35.6s-35.6,16-35.6,35.6v222.2"/>
  <path class="st2" d="M145.4,275.5c-78.7,0-142.4,63.7-142.4,142.4s63.7,142.4,142.4,142.4,50.9-7.1,72.3-19.6c3.6,16,17.4,28.1,34.5,28.1s35.6-16,35.6-35.6v-115.3c0-78.7-63.7-142.4-142.4-142.4ZM145.4,489.1c-39.2,0-71.2-32-71.2-71.2s32-71.2,71.2-71.2,71.2,32,71.2,71.2-32,71.2-71.2,71.2Z"/>
  <g class="st1">
    <path class="st0" d="M1148,447.2c-17.3-17.7-40-42.2-57.3-66.1,4.7,33.9,7.1,64.6,7.1,81.2,0,63.2-31.4,111.6-104,111.6s-95.4-31-95.4-87.4,23.5-87.4,54.5-130.7c-27.9,10.5-51.8,17.7-82.4,26.4l-7.1-24.9c36.1-8.7,71.8-18.8,110.3-33.6l16.5,18.1c-30.2,38.6-65.5,95.3-65.5,144.8s27.1,62.1,69.1,62.1,77.7-41.2,77.7-86.3-4.3-82.7-14.1-121.7l22-14.1c29,37.5,57.7,70.4,86.7,98.9l-18,21.7ZM1145.7,353.3c-20.8,0-35.3-14.1-35.3-32.5s14.5-31.8,35.3-31.8,34.9,14.1,34.9,31.8-14.9,32.5-34.9,32.5ZM1165.3,320.8c0-10.8-7.8-17.7-19.2-17.7s-20,6.9-20,17.7,7.8,18.1,20,18.1,19.2-7.2,19.2-18.1Z"/>
  </g>
</svg>