<?xml version="1.0" encoding="UTF-8"?>
<svg id="Layer_2" data-name="Layer 2" xmlns="http://www.w3.org/2000/svg" viewBox="0 0 830.81 778.25">
  <defs>
    <style>
      .cls-1 {
        fill: #fff;
      }
    </style>
  </defs>
  <g id="Layer_1-2" data-name="Layer 1">
    <g>
      <path class="cls-1" d="M433.28,434.5c88.68-45.12,190.45,32.42,171.98,129.69,48.63-.31,92.75,31.8,105.02,79.09,17.21,66.37-28.43,128.93-96.02,134.96l-482-.08c-60.85-5-114.28-48.99-128.24-108.58-20.41-87.17,39.24-167.54,127.18-176.96-6.51-82.3,53.37-157.1,135.74-166.74,74.53-8.72,144.97,37.07,166.34,108.61Z"/>
      <path class="cls-1" d="M412.72,178.91c130.51-129.66,344.98,14.78,275.59,183.73-8.74,21.29-35.57,61.67-56.53,71.58-11.41,5.39-16.91-9.31-24.88-16.77-38.46-36.04-90.55-53.27-143.28-46.49-4.03-1.19-21.17-26.59-26.3-32.15-10.73-11.61-26.53-24.54-39.92-33.08-6.73-4.3-27.23-12.99-30.65-16.39-3.87-3.83-1.93-13.78-1.21-18.97,4.41-31.83,24.55-69,47.17-91.47Z"/>
      <path class="cls-1" d="M526.95.4c15.72-2.54,29.55,7.16,31.26,23.11,1.27,11.82,1.56,50.04-.73,60.89-5.64,26.76-47.99,25.91-51.21-4.14-1.27-11.82-1.56-50.04.73-60.89,1.87-8.87,10.87-17.5,19.95-18.97Z"/>
      <path class="cls-1" d="M747.64,272.76c12.05-2.02,45.26-1.59,58.1-.46,33.49,2.95,32.33,47.82,3.04,51.8-12.21,1.66-45.83,1.54-58.28.15-30.87-3.45-30.63-46.83-2.85-51.49Z"/>
      <path class="cls-1" d="M721.75,79.83c21.53-2.66,36.49,20.22,25.04,39.67-3.3,5.61-41.13,43.25-46.51,45.94-22.41,11.19-46-11.62-35.6-33.95,2.89-6.2,43.4-46.75,49.49-49.45,2.18-.96,5.25-1.93,7.59-2.22Z"/>
      <path class="cls-1" d="M335.49,79.8c6.94-1.02,14.08,1.54,19.76,5.43,5.81,3.98,39.26,37.6,42.7,43.26,14.04,23.09-9.91,48.86-33.75,36.96-5.14-2.57-41.44-38.38-45.26-43.95-11.29-16.47-3.52-38.75,16.54-41.7Z"/>
      <path class="cls-1" d="M684.39,428.35c7.68-1.11,13.66,1.2,19.72,5.47,6.33,4.46,39.04,37.13,42.74,43.22,14.35,23.59-11.25,49.93-35.63,35.6-5.63-3.31-41.25-38.85-44.7-44.51-9.84-16.19-.97-37.06,17.87-39.78Z"/>
    </g>
  </g>
</svg>