<?xml version="1.0" encoding="UTF-8"?>
<svg id="Layer_2" data-name="Layer 2" xmlns="http://www.w3.org/2000/svg" viewBox="0 0 60.3 18.77">
  <defs>
    <style>
      .cls-1, .cls-2 {
        fill: #fff;
      }

      .cls-2 {
        opacity: 0;
      }
    </style>
  </defs>
  <g id="Layer_1-2" data-name="Layer 1">
    <g>
      <path class="cls-1" d="M1.28,9.24l2.5.88v1.23l-3.78-1.6v-1.04l3.78-1.6v1.23l-2.5.9Z"/>
      <path class="cls-1" d="M9.94,9.82c-.05.69-.3,1.23-.76,1.63-.46.4-1.06.59-1.81.59-.82,0-1.47-.28-1.94-.83-.47-.55-.71-1.31-.71-2.27v-.39c0-.62.11-1.16.33-1.63s.53-.83.93-1.08c.4-.25.87-.38,1.4-.38.74,0,1.33.2,1.78.59s.71.95.78,1.67h-1.32c-.03-.41-.15-.71-.35-.9-.2-.19-.5-.28-.9-.28-.44,0-.77.16-.99.47s-.33.8-.34,1.47v.48c0,.69.1,1.2.31,1.52.21.32.54.48.99.48.41,0,.71-.09.91-.28s.32-.47.35-.86h1.32Z"/>
      <path class="cls-1" d="M10.52,9.53c0-.47.09-.89.27-1.26s.44-.65.78-.86.74-.3,1.19-.3c.64,0,1.17.2,1.57.59s.63.93.68,1.6v.33c0,.73-.19,1.31-.6,1.76s-.95.66-1.64.66-1.23-.22-1.64-.66c-.41-.44-.61-1.04-.61-1.79v-.06ZM11.79,9.62c0,.45.08.8.25,1.04.17.24.41.36.73.36s.55-.12.72-.35c.17-.24.26-.61.26-1.13,0-.44-.09-.79-.26-1.03s-.42-.37-.73-.37-.55.12-.72.36c-.17.24-.25.62-.25,1.12Z"/>
      <path class="cls-1" d="M15.61,9.54c0-.74.17-1.33.5-1.77.33-.44.79-.66,1.36-.66.46,0,.85.17,1.15.52v-2.43h1.27v6.75h-1.15l-.06-.51c-.32.4-.72.59-1.22.59-.56,0-1.01-.22-1.35-.66-.34-.44-.51-1.05-.51-1.84ZM16.88,9.64c0,.45.08.79.23,1.03s.38.36.68.36c.39,0,.67-.17.83-.5v-1.88c-.16-.33-.43-.5-.82-.5-.61,0-.92.5-.92,1.49Z"/>
      <path class="cls-1" d="M23.07,12.04c-.7,0-1.27-.21-1.7-.64-.44-.43-.66-1-.66-1.71v-.12c0-.48.09-.9.28-1.28s.45-.67.78-.87c.34-.2.72-.31,1.16-.31.65,0,1.16.21,1.54.62.37.41.56.99.56,1.74v.52h-3.03c.04.31.16.56.37.75.21.19.47.28.78.28.49,0,.87-.18,1.15-.53l.62.7c-.19.27-.45.48-.77.63-.33.15-.69.23-1.08.23ZM22.92,8.14c-.25,0-.46.09-.61.26-.16.17-.26.42-.3.73h1.77v-.1c0-.28-.08-.5-.23-.66-.15-.15-.35-.23-.62-.23Z"/>
      <path class="cls-1" d="M28.41,5.56h1.32v4.43c0,.41-.09.77-.27,1.08-.18.31-.43.55-.76.72s-.7.25-1.11.25c-.68,0-1.2-.17-1.58-.52-.38-.34-.57-.83-.57-1.46h1.33c0,.31.07.54.2.69s.34.22.62.22c.25,0,.45-.09.6-.26s.22-.42.22-.74v-4.43Z"/>
      <path class="cls-1" d="M30.57,9.53c0-.47.09-.89.27-1.26s.44-.65.78-.86.74-.3,1.19-.3c.64,0,1.17.2,1.57.59s.63.93.68,1.6v.33c0,.73-.19,1.31-.6,1.76s-.95.66-1.64.66-1.23-.22-1.64-.66c-.41-.44-.61-1.04-.61-1.79v-.06ZM31.84,9.62c0,.45.08.8.25,1.04.17.24.41.36.73.36s.55-.12.72-.35c.17-.24.26-.61.26-1.13,0-.44-.09-.79-.26-1.03s-.42-.37-.73-.37-.55.12-.72.36c-.17.24-.25.62-.25,1.12Z"/>
      <path class="cls-1" d="M38.71,11.47c-.31.38-.75.57-1.3.57-.51,0-.9-.15-1.17-.44-.27-.29-.41-.72-.41-1.29v-3.12h1.27v3.08c0,.5.23.74.68.74s.73-.15.89-.45v-3.37h1.27v4.75h-1.2l-.04-.48Z"/>
      <path class="cls-1" d="M43.57,8.39c-.17-.02-.33-.04-.46-.04-.48,0-.8.16-.94.49v3.11h-1.27v-4.75h1.2l.04.57c.25-.44.61-.65,1.06-.65.14,0,.27.02.4.06l-.02,1.22Z"/>
      <path class="cls-1" d="M45.35,7.2l.04.55c.34-.42.8-.64,1.37-.64.5,0,.88.15,1.12.44s.37.74.38,1.33v3.07h-1.27v-3.04c0-.27-.06-.46-.18-.59-.12-.12-.31-.18-.58-.18-.36,0-.63.15-.8.46v3.35h-1.27v-4.75h1.2Z"/>
      <path class="cls-1" d="M51.97,11.95c-.06-.11-.1-.26-.13-.43-.31.34-.71.51-1.2.51-.47,0-.85-.13-1.16-.4s-.46-.61-.46-1.02c0-.5.19-.89.56-1.16.37-.27.91-.41,1.62-.41h.58v-.27c0-.22-.06-.4-.17-.53s-.29-.2-.53-.2c-.21,0-.38.05-.5.15s-.18.24-.18.42h-1.27c0-.28.08-.53.25-.76s.41-.42.72-.55.66-.2,1.05-.2c.59,0,1.05.15,1.4.44.34.29.52.71.52,1.24v2.06c0,.45.07.79.19,1.02v.07h-1.28ZM50.92,11.07c.19,0,.36-.04.52-.13.16-.08.28-.2.35-.34v-.82h-.47c-.64,0-.97.22-1.02.66v.07c0,.16.05.29.16.39s.26.15.46.15Z"/>
      <path class="cls-1" d="M55.38,11.95h-1.27v-6.75h1.27v6.75Z"/>
      <path class="cls-1" d="M59.02,9.23l-2.55-.89v-1.22l3.83,1.6v1.03l-3.83,1.61v-1.23l2.55-.91Z"/>
    </g>
    <rect class="cls-2" x="2.92" width="55.2" height="18.77"/>
  </g>
</svg>