<?xml version="1.0" encoding="UTF-8"?>
<svg id="Layer_1" data-name="Layer 1" xmlns="http://www.w3.org/2000/svg" viewBox="0 0 552.88 310.72">
  <defs>
    <style>
      .cls-1 {
        fill: #fff;
      }
    </style>
  </defs>
  <path class="cls-1" d="M140.99,109.01c-2.44-2.84-5.48-5.08-9.1-6.74-3.63-1.65-7.84-2.48-12.65-2.48s-9.46.87-13.71,2.6c-4.26,1.73-8.12,4.2-11.58,7.39-3.47,3.19-6.46,7.01-8.98,11.46-2.52,4.45-4.53,9.4-6.03,14.83h69.14c.08-.38.14-1.11.18-2.18.04-1.06.06-2.11.06-3.13,0-4.18-.61-8.14-1.83-11.88-1.22-3.74-3.05-7.03-5.5-9.87Z"/>
  <path class="cls-1" d="M271.9,109.66c-2.76-3.03-6.11-5.38-10.05-7.03-3.94-1.66-8.39-2.48-13.36-2.48-6.54,0-12.61,1.46-18.2,4.37-5.6,2.92-10.44,6.97-14.54,12.17-4.1,5.2-7.33,11.41-9.69,18.61-2.36,7.2-3.55,15.11-3.55,23.7,0,5.36.77,10.28,2.31,14.77s3.68,8.33,6.44,11.52,6.07,5.67,9.93,7.45c3.86,1.78,8.16,2.67,12.89,2.67,6.62,0,12.74-1.55,18.38-4.67,5.63-3.11,10.54-7.37,14.71-12.76,4.18-5.4,7.45-11.74,9.81-19.03,2.36-7.29,3.55-15.15,3.55-23.58,0-5.44-.75-10.32-2.25-14.66-1.5-4.33-3.63-8.02-6.38-11.05Z"/>
  <path class="cls-1" d="M353.43,50.96L364.08,0H51.3L0,245.01h261.52l-14.4,65.71h250.51l55.25-259.76h-199.45ZM169.47,137.8c-.08,1.7-.2,3.43-.36,5.2-.16,1.77-.32,3.51-.47,5.2-.16,1.69-.35,3.13-.59,4.31h-91.83c-.08,1.11-.14,2.17-.18,3.19-.04,1.03-.06,2.09-.06,3.19,0,6.54.95,12.11,2.84,16.72,1.89,4.61,4.35,8.37,7.39,11.29,3.03,2.92,6.44,5.02,10.22,6.32,3.78,1.3,7.6,1.95,11.46,1.95,8.43,0,15.21-1.46,20.33-4.37,5.12-2.91,9.02-6.85,11.7-11.82h21.63c-1.34,4.89-3.55,9.46-6.62,13.71s-6.95,7.94-11.64,11.05c-4.69,3.11-10.13,5.56-16.31,7.33-6.18,1.77-12.98,2.66-20.38,2.66s-13.79-1.16-20.09-3.49c-6.3-2.32-11.8-5.75-16.49-10.28-4.69-4.53-8.39-10.1-11.11-16.72-2.72-6.62-4.08-14.22-4.08-22.81,0-11.74,1.63-22.44,4.9-32.09,3.27-9.65,7.82-17.92,13.65-24.82,5.83-6.89,12.82-12.23,20.98-16.01,8.15-3.78,17.08-5.67,26.77-5.67,6.54,0,12.74,1.14,18.62,3.43,5.87,2.29,11.01,5.61,15.42,9.99,4.41,4.37,7.92,9.75,10.52,16.13,2.6,6.38,3.9,13.71,3.9,21.98,0,1.26-.04,2.74-.12,4.43ZM265.99,211.49l3.66-17.37h-1.89c-4.65,6.07-10.48,10.85-17.49,14.36-7.01,3.49-14.58,5.25-22.69,5.25-6.38,0-12.37-1.2-17.97-3.61-5.6-2.4-10.5-5.85-14.71-10.34-4.22-4.49-7.55-9.93-9.99-16.31s-3.66-13.51-3.66-21.39.77-14.95,2.3-21.92c1.53-6.97,3.72-13.43,6.56-19.38,2.84-5.95,6.24-11.33,10.22-16.13,3.98-4.81,8.39-8.9,13.24-12.29,4.85-3.39,10.08-5.99,15.72-7.8,5.63-1.81,11.52-2.72,17.67-2.72,4.57,0,8.92.63,13.06,1.89s7.88,3.01,11.23,5.26c3.35,2.25,6.22,4.96,8.63,8.15,2.4,3.19,4.16,6.68,5.26,10.46h1.89l15.72-74.11h20.68l-37.82,178h-19.62ZM470.79,277.23h-45.79l-29.94-65.71h-3.74l-55.42,65.71h-45.51l86.35-102.29-40-90.49h46.66l26.61,62.3h2.48l50.32-62.3h46.13l-82.43,95.02,44.28,97.76Z"/>
</svg>