<?xml version="1.0" encoding="UTF-8"?>
<svg id="Layer_2" data-name="Layer 2" xmlns="http://www.w3.org/2000/svg" viewBox="0 0 165.03 132.33">
  <defs>
    <style>
      .cls-1 {
        fill: red;
      }

      .cls-2 {
        fill: #6b6b6b;
      }
    </style>
  </defs>
  <g id="Layer_1-2" data-name="Layer 1">
    <path d="M41.2,22.03l-16.5,44.1h11.6l3.1-8.2h18.9c-3.5,10.6-4.2,21.4-2.2,32.7-7.5.7-14.6.1-22.2-1.4-8.6,6.5-18.8,9.9-29.7,10l-4.2-6.1,13.8-14C.3,67.03-2.6,47.13,2.1,30.63,5.4,19.13,13.3,10.03,24.2,5.13c15.3-7,36.9-6.9,52,.7,8.3,4.1,14.8,10.7,18.5,19.1-10.1,2.9-19,7.8-25.9,15.4l-3,3.3-8-21.5h-16.5l-.1-.1Z"/>
    <polygon points="55.5 46.93 43.6 46.93 49.5 31.23 55.5 46.93"/>
    <path class="cls-2" d="M39.5,57.93h18.9c-3.5,10.6-4.2,21.4-2.2,32.7-7.5.7-14.6.1-22.2-1.4-8.6,6.5-18.8,9.9-29.7,10L.1,93.13l13.8-14C.4,67.03-2.5,47.13,2.2,30.63S13.4,10.03,24.3,5.13c15.3-7,36.9-6.9,52,.7s14.8,10.7,18.5,19.1c-10.1,2.9-19,7.8-25.9,15.4l-3,3.3-8-21.5h-16.5l-16.5,44.1h11.6l3.1-8.2-.1-.1Z"/>
    <polygon class="cls-2" points="55.5 46.93 43.6 46.93 49.5 31.23 55.5 46.93"/>
    <path class="cls-1" d="M151.1,112.23c13.9-12,16.9-33.4,11.2-50.5-3.7-10.9-11.5-19-21.8-23.7-15.3-6.9-37.4-6.6-52.2,1.1-20.2,10.5-25.8,33.4-20.1,54.6,8.3,26.9,37,34.1,62.9,28.6,8.7,6.4,18.9,10,29.8,10l4.1-6.2-13.9-13.9h0ZM139.3,91.83l-3.7,10.2c-7.3-1.1-13.6-3.7-20-7.6-6.2,3.7-12.7,6.4-20,7.6l-3.8-10.2c5.1-1.1,9.8-2.6,14.7-4.8-4.1-4.7-6.9-9.5-8.8-15.3h-6.9v-11h19.2v-8.2h11v8.2h19.3v11h-6.9c-1.9,5.9-4.7,10.5-8.8,15.2,4.9,2.4,9.6,3.8,14.6,4.9h.1Z"/>
    <path class="cls-1" d="M121.9,71.73c-1.4,3.9-3.5,6.3-6.4,9.3-2.8-3-4.7-5.5-6.7-9.3h13.1Z"/>
  </g>
</svg>