<?xml version="1.0" encoding="UTF-8"?>
<svg id="Layer_1" xmlns="http://www.w3.org/2000/svg" version="1.1" viewBox="0 0 188 159">
  <!-- Generator: Adobe Illustrator 30.3.0, SVG Export Plug-In . SVG Version: 2.1.3 Build 182)  -->
  <defs>
    <style>
      .st0 {
        fill: #fff;
      }

      .st1 {
        fill: red;
      }
    </style>
  </defs>
  <path d="M55.2,37.1l-16.5,44.1h11.6s3.1-8.2,3.1-8.2h18.9c-3.5,10.6-4.2,21.4-2.2,32.7-7.5.7-14.6.1-22.2-1.4-8.6,6.5-18.8,9.9-29.7,10l-4.2-6.1,13.8-14c-13.5-12.1-16.4-32-11.7-48.5,3.3-11.5,11.2-20.6,22.1-25.5,15.3-7,36.9-6.9,52,.7,8.3,4.1,14.8,10.7,18.5,19.1-10.1,2.9-19,7.8-25.9,15.4l-3,3.3-8-21.5h-16.5Z"/>
  <polygon points="69.5 62 57.6 62 63.5 46.3 69.5 62"/>
  <path class="st0" d="M53.5,73h18.9c-3.5,10.6-4.2,21.4-2.2,32.7-7.5.7-14.6.1-22.2-1.4-8.6,6.5-18.8,9.9-29.7,10l-4.2-6.1,13.8-14c-13.5-12.1-16.4-32-11.7-48.5s11.2-20.6,22.1-25.5c15.3-7,36.9-6.9,52,.7s14.8,10.7,18.5,19.1c-10.1,2.9-19,7.8-25.9,15.4l-3,3.3-8-21.5h-16.5s-16.5,44.1-16.5,44.1h11.6s3.1-8.2,3.1-8.2Z"/>
  <polygon class="st0" points="69.5 62 57.6 62 63.5 46.3 69.5 62"/>
  <path class="st1" d="M165.1,127.3c13.9-12,16.9-33.4,11.2-50.5-3.7-10.9-11.5-19-21.8-23.7-15.3-6.9-37.4-6.6-52.2,1.1-20.2,10.5-25.8,33.4-20.1,54.6,8.3,26.9,37,34.1,62.9,28.6,8.7,6.4,18.9,10,29.8,10l4.1-6.2-13.9-13.9ZM153.3,106.9l-3.7,10.2c-7.3-1.1-13.6-3.7-20-7.6-6.2,3.7-12.7,6.4-20,7.6l-3.8-10.2c5.1-1.1,9.8-2.6,14.7-4.8-4.1-4.7-6.9-9.5-8.8-15.3h-6.9s0-11,0-11h19.2s0-8.2,0-8.2h11v8.2s19.3,0,19.3,0v11s-6.9,0-6.9,0c-1.9,5.9-4.7,10.5-8.8,15.2,4.9,2.4,9.6,3.8,14.6,4.9Z"/>
  <path class="st1" d="M135.9,86.8c-1.4,3.9-3.5,6.3-6.4,9.3-2.8-3-4.7-5.5-6.7-9.3h13Z"/>
</svg>