<?xml version="1.0" encoding="UTF-8"?>
<svg id="Layer_2" data-name="Layer 2" xmlns="http://www.w3.org/2000/svg" viewBox="0 0 165.57 132.83">
  <defs>
    <style>
      .cls-1 {
        fill: #fff;
        stroke: #000;
        stroke-miterlimit: 10;
      }

      .cls-2 {
        fill: red;
      }
    </style>
  </defs>
  <g id="Layer_1-2" data-name="Layer 1">
    <path d="M41.75,22.53l-16.5,44.1h11.6l3.1-8.2h18.9c-3.5,10.6-4.2,21.4-2.2,32.7-7.5.7-14.6.1-22.2-1.4-8.6,6.5-18.8,9.9-29.7,10l-4.2-6.1,13.8-14C.85,67.53-2.05,47.63,2.65,31.13,5.95,19.63,13.85,10.53,24.75,5.63c15.3-7,36.9-6.9,52,.7,8.3,4.1,14.8,10.7,18.5,19.1-10.1,2.9-19,7.8-25.9,15.4l-3,3.3-8-21.5h-16.5l-.1-.1Z"/>
    <polygon points="56.05 47.43 44.15 47.43 50.05 31.73 56.05 47.43"/>
    <path class="cls-1" d="M40.05,58.43h18.9c-3.5,10.6-4.2,21.4-2.2,32.7-7.5.7-14.6.1-22.2-1.4-8.6,6.5-18.8,9.9-29.7,10l-4.2-6.1,13.8-14C.95,67.53-1.95,47.63,2.75,31.13S13.95,10.53,24.85,5.63c15.3-7,36.9-6.9,52,.7s14.8,10.7,18.5,19.1c-10.1,2.9-19,7.8-25.9,15.4l-3,3.3-8-21.5h-16.5l-16.5,44.1h11.6l3.1-8.2-.1-.1Z"/>
    <polygon class="cls-1" points="56.05 47.43 44.15 47.43 50.05 31.73 56.05 47.43"/>
    <path class="cls-2" d="M151.65,112.73c13.9-12,16.9-33.4,11.2-50.5-3.7-10.9-11.5-19-21.8-23.7-15.3-6.9-37.4-6.6-52.2,1.1-20.2,10.5-25.8,33.4-20.1,54.6,8.3,26.9,37,34.1,62.9,28.6,8.7,6.4,18.9,10,29.8,10l4.1-6.2-13.9-13.9h0ZM139.85,92.33l-3.7,10.2c-7.3-1.1-13.6-3.7-20-7.6-6.2,3.7-12.7,6.4-20,7.6l-3.8-10.2c5.1-1.1,9.8-2.6,14.7-4.8-4.1-4.7-6.9-9.5-8.8-15.3h-6.9v-11h19.2v-8.2h11v8.2h19.3v11h-6.9c-1.9,5.9-4.7,10.5-8.8,15.2,4.9,2.4,9.6,3.8,14.6,4.9h.1Z"/>
    <path class="cls-2" d="M122.45,72.23c-1.4,3.9-3.5,6.3-6.4,9.3-2.8-3-4.7-5.5-6.7-9.3h13.1Z"/>
  </g>
</svg>