<?xml version="1.0" encoding="UTF-8"?>
<svg id="Layer_1" xmlns="http://www.w3.org/2000/svg" xmlns:x="ns_extend;" version="1.1" viewBox="0 0 180.4 62.6">
  <!-- Generator: Adobe Illustrator 29.6.1, SVG Export Plug-In . SVG Version: 2.1.1 Build 9)  -->
  <defs>
    <style>
      .st0 {
        fill-rule: evenodd;
      }

      .st0, .st1 {
        fill: #fff;
      }
    </style>
  </defs>
  <path class="st1" d="M168,28.1c-7,0-12.4,5.3-12.4,12.4s5.5,12.4,12.4,12.4,12.4-5.3,12.4-12.4-5.5-12.4-12.4-12.4M168,32.4c4.4,0,8,3.7,8,8.1s-3.5,8.1-8,8.1-8-3.7-8-8.1c0-4.4,3.5-8.1,8-8.1"/>
  <path class="st1" d="M110.6,48.6c-4.4,0-8-3.7-8-8.1s3.5-8.1,8-8.1,8,3.7,8,8.1c0,4.4-3.5,8.1-8,8.1M118.4,28.8v2.7h-.2c-1.8-2-4.8-3.3-7.8-3.3-7,0-12.4,5.3-12.4,12.4s5.5,12.4,12.4,12.4,6-1.4,7.8-3.3h.2v2.6h4.4v-23.4h-4.4Z"/>
  <path class="st1" d="M139.3,48.6c-4.4,0-8-3.7-8-8.1s3.5-8.1,8-8.1,8,3.7,8,8.1c0,4.4-3.5,8.1-8,8.1M147.1,17.7v13.8h-.2c-1.8-2-4.8-3.3-7.8-3.3-7,0-12.4,5.3-12.4,12.4s5.5,12.4,12.4,12.4,6-1.4,7.8-3.3h.2v2.6h4.5V17.7h-4.5Z"/>
  <path class="st1" d="M93.9,46.1c-1.4,1.6-3.5,2.6-5.8,2.6-4.4,0-8-3.7-8-8.1s3.5-8.1,8-8.1,4.3,1,5.8,2.5l2.2-4c-2.2-1.8-4.9-2.8-8-2.8-7,0-12.4,5.3-12.4,12.4s5.5,12.4,12.4,12.4,5.8-1,8-2.8l-2.2-4.1Z"/>
  <path class="st0" d="M16.2,12.2c-3.3.2-4,.3-5.9-1.3l-4.7-3.7c-.5-.5-.3-1.1,1-1.2l33.3-2.4c2.8-.2,4.2.7,5.3,1.6l5.7,4.1c.3.1.9.8,0,.8l-34.4,2.1h-.4Z"/>
  <path class="st0" d="M53.8,14.3l-39.5,2.3c-1.4,0-1.9.8-1.9,2.4v36.3c0,1.9,1,2.7,3.1,2.5l37.8-2.2c2.1,0,2.4-1.4,2.4-3V16.6c0-1.6-.6-2.4-1.9-2.3ZM48.6,23.3l-1.8.4v26.8c-1.6.9-3,1.3-4.2,1.3-1.9,0-2.4-.6-3.9-2.4l-12-18.8v18.1l3.8.9s0,2.2-3,2.2l-8.4.5c-.2-.5,0-1.7.8-1.9l2.2-.6v-24l-3-.3c-.2-1.1.4-2.7,2.1-2.8l9-.6,12.4,19v-16.8l-3.2-.4c-.2-1.3.7-2.3,1.9-2.4l8.4-.5c.2,1.1,0,2.2-1.1,2.3Z"/>
  <path class="st1" d="M59.9,28.1v4.3c4.4,0,7.9,3.7,7.9,8.1s-3.5,8.1-7.9,8.1v4.3c7,0,12.4-5.4,12.4-12.4,0-7-5.4-12.4-12.4-12.4Z"/>
</svg>