<?xml version="1.0" encoding="UTF-8"?>
<svg id="layer" xmlns="http://www.w3.org/2000/svg" version="1.1" viewBox="0 0 652 652">
  <!-- Generator: Adobe Illustrator 30.3.0, SVG Export Plug-In . SVG Version: 2.1.3 Build 182)  -->
  <defs>
    <style>
      .st0 {
        fill: none;
      }

      .st1 {
        fill: #4d216d;
      }
    </style>
  </defs>
  <path class="st0" d="M253.7,348.8v-27.6c-2.3,3.8-3.6,8.5-3.6,13.8s1.3,10,3.6,13.8Z"/>
  <path class="st0" d="M108.5,240.3l127.6-7.7c2.7,0,.5-2.7-.5-3.2l-21.2-15.3c-4-3.2-9.5-6.7-19.8-5.9l-123.5,9c-4.5.4-5.4,2.7-3.6,4.5l17.6,14c7.2,5.8,9.9,5.4,23.4,4.5Z"/>
  <path class="st0" d="M409,353.3c-2.4.4-4.8.8-7.2,1l-14.8,1.3c-7.2.6-10.9,3.9-10.9,9.3s5.8,10,14.6,10,20.1-6.4,20.1-15.5v-5.1c0-.9-.6-1.3-1.8-1Z"/>
  <path class="st0" d="M582,325.6c-13.4,0-22.7,9.8-22.7,24s9.3,24,22.7,24,22.7-9.9,22.7-24-9.3-24-22.7-24Z"/>
  <path class="st0" d="M485,325.6c-13.3,0-22.6,9.8-22.6,24s9.3,24,22.6,24,22.5-9.9,22.6-24c0-14.1-9.3-24-22.6-24Z"/>
  <path class="st1" d="M345.5,373.4l-8.1-9c-.2-.2-.4-.4-.6-.5-1.1-.7-2.6-.4-3.3.7-4.9,5.6-12,8.8-19.4,8.8-13.8,0-22.8-10.2-22.8-23.9s8.9-23.9,22.8-23.9,14.2,3.1,19.1,8.4c0,0,.2.1.3.2,1.1.7,2.5.3,3.2-.8l7.8-9.7c1-1.1.9-2.6-.1-3.6-8.4-7.4-19.1-11.5-30.3-11.4-22.8,0-41.8,16.8-41.8,40.8s18.4,40.8,41.8,40.8c11.9.2,23.3-4.5,31.5-13.1.1,0,.2-.2.3-.3.8-1.1.7-2.6-.4-3.5Z"/>
  <path class="st1" d="M395.6,308.8c-12.6-.5-24.8,4.4-33.5,13.6-.7.8-.6,2.1.2,2.8h.1c0,0,8.5,8.3,8.5,8.3.9.9,2.4.9,3.3,0,5.3-5.6,12.7-8.8,20.5-8.7,9.1,0,15.5,4.6,15.5,10.9s-1.8,4.5-6.7,4.8l-17.6,1.2c-7,0-13.8,2-19.6,5.8-5.8,4-9.3,10.6-9.3,17.6,0,14.9,12.4,25.2,30.2,25.2,8.7.5,17.3-2.5,23.7-8.4.6-.6,1.3-.6,1.3.3v4.3c-.2,1.2.7,2.4,1.9,2.5h12.9c1.2,0,2.2-.9,2.2-2.1v-49c0-19.3-12.5-29.1-33.6-29.1ZM410.8,359.4c0,9.1-8.4,15.5-20.1,15.5s-14.6-4-14.6-10,3.7-8.7,10.9-9.3l14.8-1.3c2.4-.2,4.8-.6,7.2-1,1.2-.3,1.8,0,1.8,1v5.1Z"/>
  <path class="st1" d="M580.2,308.7c-22.2.5-39.9,18.6-39.9,40.8-.3,22.3,17.5,40.5,39.8,40.8.7.1,1.3.1,1.9,0,22.5-.5,40.4-19.2,39.9-41.7s-19.2-40.4-41.7-39.9ZM582,373.6c-13.4,0-22.7-9.9-22.7-24s9.3-24,22.7-24,22.7,9.9,22.7,24-9.2,24-22.7,24Z"/>
  <path class="st1" d="M523.4,279.5h-14.1c-1.2,0-2.3.8-2.4,2v35.6c0,.9-.6.7-.9.4-6.3-6-14.8-9.1-23.4-8.8-21.7,0-39.1,16.6-39.1,40.8,0,24.9,16.8,40.8,38.9,40.8,5.6.1,11.1-1.1,16.1-3.6,2.6-1.3,5-2.9,7.2-4.8.7-.6,1.2-.4,1.2.3v4.3c-.2,1.2.7,2.4,1.9,2.5h14.4c1.2,0,2.3-.8,2.4-2v-105.1c0-1.3-.9-2.3-2.2-2.4ZM485,373.6c-13.3,0-22.6-9.9-22.6-24s9.3-24,22.6-24,22.6,9.9,22.6,24c0,14.1-9.3,24-22.6,24Z"/>
  <path d="M269,311.3v-68.3c0-5.4-2.3-6.8-9-11.7l-41-28.8c-9.9-7.2-14-8.1-29.7-6.7l-128.5,9.5h0c-10.4.9-14,7.7-14,15.8v140.5c0,6.3,2.3,11.7,7.7,18.9l30.2,39.2c5,6.3,9.5,7.7,18.9,7.2l149.2-9c12.6-.9,16.2-6.7,16.2-16.7v-89.8ZM85.1,235.8l-17.6-14c-1.8-1.8-.9-4.1,3.6-4.5l123.5-9c10.4-.9,15.8,2.7,19.8,5.9l21.2,15.3c.9.5,3.2,3.2.5,3.2l-127.6,7.7c-13.5.9-16.2,1.3-23.4-4.5ZM253.7,298.3v91.5c0,5.9-.9,10.8-9,11.3l-140.2,8.1c-8.1.5-11.7-2.3-11.7-9.5v-134.2h0c0-5.9,1.8-8.6,7.2-9l146.5-8.6c5-.5,7.2,2.7,7.2,8.6v41.8Z"/>
  <path d="M200.1,274.5c-4.5.4-8.1,4-7.2,9l11.7,1.4v62.2l-46-70.3-33.4,2.3c-6.3.4-8.6,6.3-7.7,10.4l11.3.9v88.7l-8.1,2.3c-3.2.9-4.1,5.4-3.2,7.2l31.1-1.8c11.3,0,11.3-8.1,11.3-8.1l-14-3.2v-67.1l44.2,69.4c5.4,6.7,7.2,9,14.4,9s9.9-1.8,15.8-5v-99l6.7-1.4c4.1-.5,5-4.5,4.1-8.6l-31.1,1.8Z"/>
</svg>