<?xml version="1.0" encoding="utf-8"?>
<!-- Generator: Adobe Illustrator 19.2.1, SVG Export Plug-In . SVG Version: 6.00 Build 0)  -->
<svg version="1.1" id="layer" xmlns="http://www.w3.org/2000/svg" xmlns:xlink="http://www.w3.org/1999/xlink" x="0px" y="0px"
	 viewBox="0 0 652 652" style="enable-background:new 0 0 652 652;" xml:space="preserve">
<style type="text/css">
	.st0{fill:#4D216D;}
</style>
<path id="Path_8396" class="st0" d="M217.3,366.4c22.5-0.5,40.4-19.2,39.9-41.7c-0.5-22.5-19.2-40.4-41.7-39.9
	c-22.2,0.5-39.9,18.6-39.9,40.8c-0.3,22.3,17.5,40.5,39.8,40.8C216,366.5,216.7,366.4,217.3,366.4 M217.3,349.7
	c-13.4,0-22.7-9.9-22.7-24c0-14.2,9.3-24,22.7-24c13.4,0,22.7,9.9,22.7,24C240,339.8,230.7,349.7,217.3,349.7 M345.4,353.3
	c-8.2,8.6-19.6,13.3-31.5,13.1c-23.4,0-41.8-17-41.8-40.8c0-24,19-40.8,41.8-40.8c11.2-0.1,21.9,4,30.3,11.4c1,1,1.1,2.5,0.1,3.6
	l-7.8,9.7c-0.7,1.1-2.1,1.5-3.2,0.8c-0.1-0.1-0.2-0.2-0.3-0.2c-4.9-5.3-11.9-8.4-19.1-8.4c-13.9,0-22.8,10.1-22.8,23.9
	c0,13.7,9,23.9,22.8,23.9c7.4,0,14.5-3.2,19.4-8.8c0.7-1.1,2.2-1.4,3.3-0.7c0.2,0.1,0.4,0.3,0.6,0.5l8.1,9c1.1,0.9,1.2,2.4,0.4,3.5
	C345.6,353.1,345.5,353.2,345.4,353.3 M387,366.4c8.7,0.5,17.3-2.5,23.7-8.4c0.6-0.6,1.3-0.6,1.3,0.3v4.3c-0.2,1.2,0.7,2.4,1.9,2.5
	c0.2,0,0.3,0,0.5,0h12.4c1.2,0,2.2-0.9,2.2-2.1c0-0.1,0-0.2,0-0.3V314c0-19.3-12.5-29.1-33.6-29.1c-12.6-0.5-24.8,4.4-33.5,13.6
	c-0.7,0.8-0.6,2.1,0.2,2.8c0,0,0,0,0.1,0.1l8.5,8.2c0.9,0.9,2.4,0.9,3.3,0c5.3-5.6,12.7-8.8,20.5-8.7c9.1,0,15.5,4.6,15.5,10.9
	c0,3.1-1.8,4.5-6.7,4.8l-17.6,1.2c-7,0-13.8,2-19.6,5.8c-5.8,4-9.3,10.6-9.3,17.6C356.9,356.1,369.2,366.4,387,366.4 M390.5,351
	c-8.8,0-14.6-4-14.6-10c0-5.4,3.7-8.7,10.9-9.3l14.8-1.3c2.4-0.2,4.8-0.6,7.2-1c1.2-0.3,1.8,0.1,1.8,1v5.1
	C410.6,344.6,402.2,351,390.5,351 M482.2,366.4c5.6,0.1,11.1-1.1,16.1-3.6c2.6-1.3,5-2.9,7.2-4.8c0.7-0.6,1.2-0.4,1.2,0.3v4.3
	c-0.2,1.2,0.7,2.4,1.9,2.5c0.2,0,0.3,0,0.5,0H523c1.2,0.1,2.3-0.8,2.4-2c0-0.1,0-0.3,0-0.4V258c0.1-1.3-0.9-2.3-2.2-2.4
	c-0.1,0-0.2,0-0.2,0h-13.9c-1.2-0.1-2.3,0.8-2.4,2c0,0.1,0,0.3,0,0.4v35.2c0,0.9-0.6,0.7-0.9,0.4c-6.3-6-14.8-9.1-23.4-8.8
	c-21.7,0-39.1,16.6-39.1,40.8C443.2,350.5,460.1,366.4,482.2,366.4 M484.8,349.7c-13.3,0-22.6-9.9-22.6-24c0-14.2,9.3-24,22.6-24
	c13.3,0,22.6,9.9,22.6,24C507.3,339.8,498.1,349.7,484.8,349.7 M581.8,366.4c22.5-0.5,40.4-19.2,39.9-41.7
	c-0.5-22.5-19.2-40.4-41.7-39.9c-22.2,0.5-39.9,18.6-39.9,40.8c-0.3,22.3,17.5,40.5,39.8,40.8C580.6,366.5,581.2,366.5,581.8,366.4
	 M581.8,349.7c-13.4,0-22.7-9.9-22.7-24c0-14.2,9.3-24,22.7-24c13.4,0,22.7,9.9,22.7,24C604.5,339.8,595.3,349.7,581.8,349.7"/>
<path id="Path_8397" class="st0" d="M104.3,348.2c19.7,0.4,37.4-12,43.6-30.7c0.6-1.5,1.1-2.2,2.1-2.2c1.6,0,2.2,2.1,2.2,5.8
	c0.5,35.6-27.9,64.9-63.5,65.5c-0.4,0-0.7,0-1.1,0c-36.2,0.2-65.7-28.9-65.9-65c-0.2-36.2,28.9-65.7,65-65.9c0.6,0,1.3,0,1.9,0
	c30.6,0,55,19.3,55,43.6c0.2,18-14.3,32.8-32.3,33c-0.3,0-0.5,0-0.8,0c-16.8,0-30.7-11.7-30.7-28c0-6.5,2.2-12.8,6.1-18
	c3-3.7,5.7-4.6,5.7-2.5c-0.4,1.7-0.6,3.5-0.8,5.2c0.4,7.4,6.7,13.1,14.1,12.7c8,0,14.5-6.4,14.5-14.4c0-0.1,0-0.1,0-0.2
	c0-10.3-10.6-18.6-24.3-18.6c-20.4,0-35.7,18.6-35.7,38.9C59.6,330.7,79.4,348.2,104.3,348.2"/>
</svg>
