<?xml version="1.0" encoding="UTF-8"?>
<svg id="Layer_2" data-name="Layer 2" xmlns="http://www.w3.org/2000/svg" viewBox="0 0 3567.44 731.61">
  <defs>
    <style>
      .cls-1 {
        fill: #dc1867;
      }
    </style>
  </defs>
  <g id="Layer_1-2" data-name="Layer 1">
    <g>
      <path class="cls-1" d="M1049.77,492.81c0,68.23-.86,136.48.5,204.69.43,21.53-4.09,29.58-27.6,28.57-46.84-2.01-93.83-1.08-140.74-.31-15.25.25-20.75-4.03-20.7-20.03.51-170.79.45-341.59.08-512.38-.03-14.01,4.05-19.41,18.65-19.16,40.92.71,81.89,1.04,122.79-.14,17.67-.51,24.13,11.38,32.27,22.23,47.1,62.82,94.01,125.8,141.08,188.64,5.8,7.74,12.18,15.04,20.22,24.9,6.47-13.02,3.2-23.73,3.15-33.87-.33-59.57-.67-119.14-1.8-178.7-.29-15.3,1.9-23.7,20.69-23.23,48.89,1.2,97.85,1.15,146.75,0,18.38-.43,20.94,7.31,20.9,22.95-.44,168.81-.62,337.62.19,506.42.09,19.71-7.25,23.04-24.43,22.4-30.91-1.14-62.17-2.88-92.76.4-30.23,3.24-46.87-9.84-63.21-32.62-49.16-68.48-100.24-135.59-150.57-203.23-1.82.82-3.64,1.64-5.45,2.46Z"/>
      <path class="cls-1" d="M2310.52,448.4c0-83.35.66-166.71-.48-250.05-.27-20.01,5.88-24.82,25.26-24.67,111.73.87,223.48.8,335.22.05,17.65-.12,24.42,3.4,23.64,22.58-1.61,39.63-1.22,79.38-.15,119.05.45,16.51-4.1,22.23-21.44,21.85-49.86-1.1-99.77.28-149.64-.74-16.75-.35-21.62,4.34-21.86,21.31-.94,65.57-1.61,65.56,63.66,65.56,28.93,0,57.92,1.08,86.78-.37,19.24-.97,23.52,6.53,22.92,24.17-1.24,36.67-1.28,73.45,0,110.12.63,18.17-4.86,24.15-23.48,23.6-42.86-1.28-85.81.45-128.68-.82-17.53-.52-21.63,5.47-21.09,21.77,1.14,34.69-.44,69.47.7,104.17.52,15.69-4.23,20.19-19.98,19.87-48.87-.99-97.79-1.23-146.64.07-19.28.51-25.5-4.38-25.22-24.47,1.16-84.33.49-168.68.49-253.03Z"/>
      <g>
        <path class="cls-1" d="M547.94,183.64c-30.07-10.72-48.56-26.11-60.66-54.94-10.2-24.31-22.47-51.31-51.36-58.44-31.92-7.88-59.88-20.76-84.05-42.82-13.63-12.45-27.18-11.11-30.6,8.17-4.36,24.63-22.22,36.47-39.55,49.63-5.72,4.34-18.59,4.33-13.55,15.21,4.2,9.05,13.95,4.17,21.12,1.33,15.13-6,32.39-6.44,41.8,5.14,8.7,10.7-1.35,26.99-5.71,38.94-7.94,21.75-31.91,7.61-47.61,15.22-9.29,4.5-13.94-6.74-17.43-15.68-14.47-37.17-22.36-39.32-55.91-17.43-7.63,4.98-13.05,12-19.52,18-26.32,24.4-28.5,71.79-74.72,77.41-5.56.68-10.48,6.43-7.12,13.61,3.03,6.47,9.18,6.83,15.37,6.07,22.24-2.74,44.47-5.55,69.06-8.63-8.16,30.13-37.2,38.52-48.11,67.05-19.84,51.91-29.08,103.61-26.89,156.72,3.14,76.27,28,146.32,87.45,198.65,70.81,62.32,156.4,80.5,248.07,73.26,112.85-8.91,198.25-59.63,247.48-164.81,68.43-146.2-.79-329.35-147.56-381.66ZM413.32,556.15c-61.89-.86-107.57-48.74-106.79-111.94.84-67.65,43.54-109.59,111.11-109.1,65.69.48,107.37,44.73,106.81,113.4-.51,62.36-48.16,108.51-111.13,107.63Z"/>
        <path class="cls-1" d="M119.94,278.69c-3.65-14.33-17.73-7.06-27.54-3.32-19.04,7.26-38.26,12.29-61.5,11.2,11.26-19.93,32.64-21.26,44.35-38.03-26.83-8.88-48.57,3.07-69.93,36.08-3.21,4.96-7.3,9.76-4.22,16.23,3.97,8.34,11.95,7.53,18.17,5.45,25.75-8.62,52.62-10.27,79.14-14.22,9.29-1.39,24.84-.42,21.54-13.39Z"/>
      </g>
      <g>
        <path class="cls-1" d="M3567.34,569.29c-1.16-9.36-8.03-4.15-12.93-5.37-14.7-3.64-43.79,10.14-33.94-26.65,2.21-8.24-9.15-7.61-15.9-6.48-27.7,4.65-54.75,4.77-80.34-9.25-6.69-3.67-13.56-.76-19.75,2.35-18.03,9.07-36.82,22.14-40.19-13.52-.4-4.2-7.68-10.55-12.35-11.1-27.71-3.26-20.47-15.72-9.49-30.51,3.39-4.57,5.63-10.29,7.22-15.81,8.43-29.34,17.25-32.47,39.3-13.53,36.75,31.55,90.08,26.65,113.26-10.53,6.48-10.39,13.06-23.19-1.3-30.39-19.17-9.61-27.69-42.95-60.06-26.08-7.07,3.69-22.99-1.4-30.29-7.68-21.77-18.73-32.4-3.48-35.13,13.02-4.84,29.27-21,30.01-43.21,23.9q-4.97,15.38,1.49,33.38c-22.9-6.44-24.24-13.62-8.6-46.32,0,0,0,0,0,0,4.85-17.48,15.41-31.25,28.07-43.85,8.54-8.5,22.55-13.37,21.1-28.85-.18-1.92-4.13-5.15-6.11-4.99-15.41,1.23-18.39,15.65-26.21,25.1-7.24,8.75-17.69,27.55-23.98,21.68-24.29-22.64-43.56-3.35-60.49,5.79-19.41,10.49-24.74,6.03-31.02-11.7-17.58-49.6-37.47-98.42-54-148.35-7.59-22.93-20.44-30.21-43.36-29.53-43.25,1.3-86.58.02-129.84,1.03-15.74.37-36.13-4.7-43.01,16.21-7.64,23.2-14.93,47.59,8.58,67.8,6.13,5.27,15.89,10.54,8.9,21.53-5.76,9.04-15.09,9.44-23.68,6.62-21.6-7.09-30.26,4.39-36.8,22.2-47.07,128.16-93.95,256.4-142.27,384.1-9.04,23.9-1.34,27.12,20.35,29.09,51.12,4.64,102.08-6.26,153.11.39,12.51,1.63,19.52-6.54,22.97-18.28,5.75-19.61,12.01-39.08,18.1-58.59,5.17-16.57,18.62-30.36,30.91-14.28,19.6,25.63,43.74,21.56,68.63,21.67,49.85.21,50.13-.04,69.64,47.45,5.19,12.63,10.64,22.72,26.56,22.63,54.11-.3,108.22-.1,162.32-.35,16.02-.07,20.75-6.72,14.03-22.45-9.58-22.43-18.01-45.4-25.69-68.55-3.79-11.42-17.02-23.58-7.7-34.87,10.98-13.31,28.78-9.72,44.31-6.67,7.63,1.5,14.86,4.96,22.33,7.35,34.22,10.93,68.5,21.65,102.65,32.76,10.31,3.35,22.31,5.36,20.55-9.27-3.98-33.15,11-44.23,41.73-42.43,5.13.3,12.54-1.33,11.48-9.84ZM3084.38,524.8c-65.91,2.63-66.33,2.98-46.53-59.28,7.6-23.91,11.49-49.24,25.67-73.9,12.88,39.02,24.84,75.68,37.12,112.24,5.22,15.54,0,20.29-16.26,20.94Z"/>
        <path class="cls-1" d="M2923.92,115.4c14.07,9.68,86.08-.42,95.07-14.26,6.33-9.74,13.69-10.7,22.82-6.53,11.76,5.38,22.92,12.11,34.82,17.1,67.12,28.17,123.95-5.95,126.47-75.64q1.17-32.57-32.28-32.69c-14.98-.04-29.96.07-44.93.14-7.99.04-16.78-.85-20.26,8.67-9.25,25.28-25.06,15.84-40.67,7.98-8.88-4.47-17.36-10-26.62-13.42-67.45-24.94-128.18,22.03-120.5,92.81.64,5.92.5,11.97,6.09,15.82Z"/>
        <path class="cls-1" d="M3324.51,412.69c-1.21-.19-.92-1.06-.68-2.81.93-6.67,5.18-10.38,10.88-13-6.37-2.22-5.62-8.31-7.22-13.13,0,0,0,0,0,0-4.09,9.24.28,19.83-5.62,28.78-.59,3.81,6.59.79,2.64.15Z"/>
      </g>
      <path class="cls-1" d="M2151.37,716.56c-65.34-175.41-130.9-350.74-195.97-526.24-5.2-14.02-14.11-16.26-27.28-16.13-52.91.53-105.85,1.03-158.74-.25-17.65-.43-24.22,6.88-29.32,21.94-10.15,30-22.25,59.34-33.33,89.04-54.31,145.55-108.54,291.13-164.24,440.55,54.13,0,104.2-2.79,153.77.93,36.38,2.73,56.17-7.82,61.01-44.19,2.7-20.27,14.49-26.49,35.17-25.16,31.82,2.05,64.12,3.04,95.74-.16,32.52-3.3,49.32,7.63,55.8,39.44,2.2,10.79,1.71,28.62,19.72,28.81,62.54.66,125.1.25,187.72.25,0-4.99.56-7.13-.08-8.83ZM1883.68,531.99c-22.87-.48-45.77-.55-68.63.06-15.4.41-15.58-5.91-11.5-18.21,14.22-42.93,27.45-86.19,41.06-129.32,2.26-.04,4.52-.08,6.78-.12,14.54,43.6,29.08,87.21,43.62,130.81,3.48,10.44,2.24,17.07-11.33,16.78Z"/>
    </g>
  </g>
</svg>