<?xml version="1.0" encoding="UTF-8"?>
<svg id="Layer_2" data-name="Layer 2" xmlns="http://www.w3.org/2000/svg" viewBox="0 0 55.2 18.77">
  <defs>
    <style>
      .cls-1, .cls-2 {
        fill: #fff;
      }

      .cls-2 {
        opacity: 0;
      }
    </style>
  </defs>
  <g id="Layer_1-2" data-name="Layer 1">
    <rect class="cls-2" width="55.2" height="18.77"/>
    <g>
      <path class="cls-1" d="M16.4,10.3c0,1.04-.01,2.09,0,3.13,0,.33-.06.45-.42.44-.72-.03-1.43-.02-2.15,0-.23,0-.32-.06-.32-.31,0-2.61,0-5.22,0-7.83,0-.21.06-.3.29-.29.63.01,1.25.02,1.88,0,.27,0,.37.17.49.34.72.96,1.44,1.92,2.16,2.88.09.12.19.23.31.38.1-.2.05-.36.05-.52,0-.91-.01-1.82-.03-2.73,0-.23.03-.36.32-.36.75.02,1.5.02,2.24,0,.28,0,.32.11.32.35,0,2.58,0,5.16,0,7.74,0,.3-.11.35-.37.34-.47-.02-.95-.04-1.42,0-.46.05-.72-.15-.97-.5-.75-1.05-1.53-2.07-2.3-3.11-.03.01-.06.03-.08.04Z"/>
      <path class="cls-1" d="M35.68,9.62c0-1.27.01-2.55,0-3.82,0-.31.09-.38.39-.38,1.71.01,3.42.01,5.13,0,.27,0,.37.05.36.35-.02.61-.02,1.21,0,1.82,0,.25-.06.34-.33.33-.76-.02-1.53,0-2.29-.01-.26,0-.33.07-.33.33-.01,1-.02,1,.97,1,.44,0,.89.02,1.33,0,.29-.01.36.1.35.37-.02.56-.02,1.12,0,1.68,0,.28-.07.37-.36.36-.66-.02-1.31,0-1.97-.01-.27,0-.33.08-.32.33.02.53,0,1.06.01,1.59,0,.24-.06.31-.31.3-.75-.02-1.5-.02-2.24,0-.29,0-.39-.07-.39-.37.02-1.29,0-2.58,0-3.87Z"/>
      <g>
        <path class="cls-1" d="M8.73,5.57c-.46-.16-.74-.4-.93-.84-.16-.37-.34-.78-.79-.89-.49-.12-.92-.32-1.29-.65-.21-.19-.42-.17-.47.12-.07.38-.34.56-.6.76-.09.07-.28.07-.21.23.06.14.21.06.32.02.23-.09.5-.1.64.08.13.16-.02.41-.09.6-.12.33-.49.12-.73.23-.14.07-.21-.1-.27-.24-.22-.57-.34-.6-.85-.27-.12.08-.2.18-.3.28-.4.37-.44,1.1-1.14,1.18-.08.01-.16.1-.11.21.05.1.14.1.24.09.34-.04.68-.08,1.06-.13-.12.46-.57.59-.74,1.03-.3.79-.44,1.58-.41,2.4.05,1.17.43,2.24,1.34,3.04,1.08.95,2.39,1.23,3.79,1.12,1.73-.14,3.03-.91,3.78-2.52,1.05-2.24-.01-5.04-2.26-5.84ZM6.67,11.26c-.95-.01-1.64-.75-1.63-1.71.01-1.03.67-1.68,1.7-1.67,1,0,1.64.68,1.63,1.73,0,.95-.74,1.66-1.7,1.65Z"/>
        <path class="cls-1" d="M2.18,7.02c-.06-.22-.27-.11-.42-.05-.29.11-.58.19-.94.17.17-.3.5-.33.68-.58-.41-.14-.74.05-1.07.55-.05.08-.11.15-.06.25.06.13.18.12.28.08.39-.13.8-.16,1.21-.22.14-.02.38,0,.33-.2Z"/>
      </g>
      <g>
        <path class="cls-1" d="M54.9,11.46c-.02-.14-.12-.06-.2-.08-.22-.06-.67.16-.52-.41.03-.13-.14-.12-.24-.1-.42.07-.84.07-1.23-.14-.1-.06-.21-.01-.3.04-.28.14-.56.34-.61-.21,0-.06-.12-.16-.19-.17-.42-.05-.31-.24-.15-.47.05-.07.09-.16.11-.24.13-.45.26-.5.6-.21.56.48,1.38.41,1.73-.16.1-.16.2-.35-.02-.46-.29-.15-.42-.66-.92-.4-.11.06-.35-.02-.46-.12-.33-.29-.5-.05-.54.2-.07.45-.32.46-.66.37q-.08.24.02.51c-.35-.1-.37-.21-.13-.71,0,0,0,0,0,0,.07-.27.24-.48.43-.67.13-.13.34-.2.32-.44,0-.03-.06-.08-.09-.08-.24.02-.28.24-.4.38-.11.13-.27.42-.37.33-.37-.35-.67-.05-.92.09-.3.16-.38.09-.47-.18-.27-.76-.57-1.5-.83-2.27-.12-.35-.31-.46-.66-.45-.66.02-1.32,0-1.99.02-.24,0-.55-.07-.66.25-.12.35-.23.73.13,1.04.09.08.24.16.14.33-.09.14-.23.14-.36.1-.33-.11-.46.07-.56.34-.72,1.96-1.44,3.92-2.18,5.87-.14.37-.02.41.31.44.78.07,1.56-.1,2.34,0,.19.02.3-.1.35-.28.09-.3.18-.6.28-.9.08-.25.28-.46.47-.22.3.39.67.33,1.05.33.76,0,.77,0,1.06.73.08.19.16.35.41.35.83,0,1.65,0,2.48,0,.24,0,.32-.1.21-.34-.15-.34-.28-.69-.39-1.05-.06-.17-.26-.36-.12-.53.17-.2.44-.15.68-.1.12.02.23.08.34.11.52.17,1.05.33,1.57.5.16.05.34.08.31-.14-.06-.51.17-.68.64-.65.08,0,.19-.02.18-.15ZM47.51,10.78c-1.01.04-1.01.05-.71-.91.12-.37.18-.75.39-1.13.2.6.38,1.16.57,1.72.08.24,0,.31-.25.32Z"/>
        <path class="cls-1" d="M45.06,4.52c.22.15,1.32,0,1.45-.22.1-.15.21-.16.35-.1.18.08.35.19.53.26,1.03.43,1.9-.09,1.93-1.16q.02-.5-.49-.5c-.23,0-.46,0-.69,0-.12,0-.26-.01-.31.13-.14.39-.38.24-.62.12-.14-.07-.27-.15-.41-.21-1.03-.38-1.96.34-1.84,1.42,0,.09,0,.18.09.24Z"/>
        <path class="cls-1" d="M51.18,9.07s-.01-.02-.01-.04c.01-.1.08-.16.17-.2-.1-.03-.09-.13-.11-.2,0,0,0,0,0,0-.06.14,0,.3-.09.44,0,.06.1.01.04,0Z"/>
      </g>
      <path class="cls-1" d="M33.24,13.72c-1-2.68-2-5.36-3-8.05-.08-.21-.22-.25-.42-.25-.81,0-1.62.02-2.43,0-.27,0-.37.11-.45.34-.16.46-.34.91-.51,1.36-.83,2.23-1.66,4.45-2.51,6.74.83,0,1.59-.04,2.35.01.56.04.86-.12.93-.68.04-.31.22-.41.54-.38.49.03.98.05,1.46,0,.5-.05.75.12.85.6.03.17.03.44.3.44.96.01,1.91,0,2.87,0,0-.08,0-.11,0-.14ZM29.15,10.89c-.35,0-.7,0-1.05,0-.24,0-.24-.09-.18-.28.22-.66.42-1.32.63-1.98.03,0,.07,0,.1,0,.22.67.44,1.33.67,2,.05.16.03.26-.17.26Z"/>
    </g>
  </g>
</svg>