<?xml version="1.0" encoding="UTF-8"?>
<svg id="Layer_2" data-name="Layer 2" xmlns="http://www.w3.org/2000/svg" viewBox="0 0 55.2 13.7">
  <g id="Layer_1-2" data-name="Layer 1">
    <path d="M9.2.8h-1.5v4.4h-1.5V.8h-1.5V0h4.4v.7h.1v.1Z"/>
    <path d="M16.1,5.3h-1.5v-2.3h-2.2v2.3h-1.5V.1h1.5v2.2h2.3V.1h1.5v5.2h-.1Z"/>
    <path d="M21.6,5.9h-4.4v-.7h1.5V1.5h-1.5v-.8h4.4v.7h-1.5v3.7h1.5v.8Z"/>
    <path d="M27.6,4.6h-.7v.8h-3.7v-.7h-.8v-.8h1.5v.7h2.2v-1.5h-3v-.8h-.8V.8h.7v-.8h3v.7h.8v.8h-1.5v-.7h-1.5v1.5h3v.8h.8v1.5h0Z"/>
    <path d="M27.6,5.3c0-.3.3-.7.6-.7s.6.3.6.7-.3.7-.6.7-.6-.3-.6-.7Z"/>
    <path d="M6,10.3h-.8v1H1.7v1.9H0v-6.7h5.2v.9h.9v2.9h-.1ZM4.2,10.3v-2.8H1.7v2.8h2.5Z"/>
    <path d="M13.5,12.1h-.9v1h-5v-.9h-1v-5h.9v-1h5v.9h1v5ZM11.5,12.1v-4.9h-2.9v4.9h2.9Z"/>
    <path d="M20.6,10.3h-2v.9h1v1h1v1h-2.9v-.9h-1v-1h-1v2h-2v-7h5.9v.9h1v3h-.1.1v.1ZM18.6,9.2v-2h-2.9v2.9h2v-1h.9v.1Z"/>
    <path d="M25.4,7.4h-1.8v6.3h-1.8v-6.3h-1.8v-1.1h5.5v1h-.1v.1Z"/>
    <path d="M32.2,7.7h-4.9v2h3.9v1h-3.9v3h-2v-7h7v.9h-.1v.1Z"/>
    <path d="M38.1,12.4h-.9v1h-5v-.9h-1v-5h.9v-1h5v.9h1v5ZM36.1,12.4v-4.9h-2.9v4.9h2.9Z"/>
    <path d="M44,13.2h-5.9v-7h2v5.9h3.9v1h0v.1Z"/>
    <path d="M48.2,13.5h-5.9v-.9h2v-5h-2v-1h5.9v.9h-2v5h2v1Z"/>
    <path d="M55.2,12.4h-.9v1h-5v-.9h-1v-5h.9v-1h5v.9h1v5h0ZM53.2,12.4v-4.9h-2.9v4.9h2.9Z"/>
  </g>
</svg>