<?xml version="1.0" encoding="UTF-8"?>
<svg id="Layer_2" data-name="Layer 2" xmlns="http://www.w3.org/2000/svg" viewBox="0 0 635.07 277.26">
  <defs>
    <style>
      .cls-1 {
        fill: #fff;
        stroke: #000;
      }

      .cls-1, .cls-2 {
        stroke-miterlimit: 10;
      }

      .cls-2 {
        stroke: #fff;
      }
    </style>
  </defs>
  <g id="Layer_1-2" data-name="Layer 1">
    <rect width="635.07" height="277.26"/>
    <path class="cls-1" d="M464.01,83.7h-13.08v76.9h13.08v-19.62c0-.31,4.11-4.33,4.7-3.92l16.45,23.05,6.57.49,3.67,28.77c2.26-1.26,15.78-16.77,17.25-15.69l12.03,25.94,9.21-4.48-12.34-26.69,21.97-3.14-56.24-36.62,1.58,14.64-10.66-14.48,21.37-24.23h-14.39l-21.19,23.02v-43.94h0Z"/>
    <path class="cls-1" d="M259.99,91.02h-12.82l-.78.78v12.82h-7.59c-1.63,2.49-.51,6.6-.7,9.59l.7.87h7.59v31.13c0,.92.77,4.59,1.08,5.72,2.7,10.01,15.78,9.93,24.03,8.66v-9.94c-3.4.06-8.41.5-10.39-2.95-.21-.36-1.12-2.88-1.12-3.07v-29.56h11.51v-9.68l-.78-.78h-10.72v-13.6Z"/>
    <path class="cls-1" d="M155.79,103.74c-19.71,1.58-27.5,19.73-23.72,37.53,5.85,27.59,46.65,27.61,52.34-.02,4.17-20.3-5.98-39.33-28.63-37.52h0Z"/>
    <path class="cls-1" d="M235.41,120.32c-.77-22.25-43.45-22.07-44.98-.77-1.27,17.55,17.1,15.86,28.07,20.04,8.82,3.35,4.85,11.41-3.21,12.15-6.43.59-10.64-.97-13.62-6.82h-12.82c2.29,24.78,52.68,21.63,47.54-4.38-2.95-14.92-25.87-10.36-31.62-17.03-7.97-9.27,16.93-15.05,18.08-3.17h12.55Z"/>
    <path class="cls-1" d="M377.59,103.74c-19.85,1.54-27.44,19.63-23.71,37.52,5.8,27.76,47,27.61,52.45-.42,3.91-20.13-6.44-38.83-28.73-37.1h-.01Z"/>
    <path class="cls-1" d="M87.36,113.52v-8.11l-.78-.78h-12.03l-.78.78v73.5h13.6v-27.2l4.98,5.74c41.61,24.06,49.5-60.66,7.54-53.11-5.5.99-9.49,4.75-12.53,9.18h.01Z"/>
    <path class="cls-1" d="M446.22,116.13v-11.25l-.78-.78h-8.37c-2.85,0-7.29,4.02-8.74,6.43-.61,1-.59,2.59-1.46,2.98v-8.11l-.78-.78h-12.03l-.78.78v55.19h12.82l.78-.78v-35.05c0-.68,1.76-3.7,2.34-4.46,4.16-5.34,10.91-5.02,17.01-4.17Z"/>
    <polygon class="cls-1" points="286.67 104.62 273.59 104.62 288.26 160.58 302.04 160.63 313.09 120.31 323.83 160.57 337.97 160.36 352.9 105.69 352.32 104.61 340.29 104.61 330.35 146.46 319.69 104.92 307.84 104.58 296.34 146.47 286.67 104.62 286.67 104.62"/>
    <path class="cls-2" d="M98.21,115.21c20.76-3.33,21.04,35.33,2.49,35.33s-18.1-32.83-2.49-35.33Z"/>
    <path class="cls-2" d="M149.79,147.87c-7.93-7.53-6.97-31.39,6.4-33.25,20.01-2.78,19.4,32.98,6.01,35.81-4.11.87-9.26.43-12.41-2.56Z"/>
    <path class="cls-2" d="M377.57,114.7c13.2-1.93,16.75,10.93,15.81,21.56-.88,9.9-6.51,16.02-16.87,14.27-13.06-2.21-13.8-33.67,1.06-35.83Z"/>
  </g>
</svg>