<?xml version="1.0" encoding="UTF-8"?>
<svg id="Layer_1" data-name="Layer 1" xmlns="http://www.w3.org/2000/svg" viewBox="0 0 607 265">
  <defs>
    <style>
      .cls-1 {
        fill: #fff;
      }
    </style>
  </defs>
  <path class="cls-1" d="M607,0v265H0V0h607ZM443.5,80h-12.5v73.5h12.5v-18.75c0-.3,3.93-4.14,4.49-3.75l15.72,22.03,6.28.47,3.51,27.5c2.16-1.2,15.08-16.03,16.49-15l11.5,24.79,8.8-4.28-11.79-25.51,21-3-53.75-35,1.51,13.99-10.19-13.84,20.43-23.16h-13.75l-20.25,22v-42ZM248.5,87h-12.25l-.75.75v12.25h-7.25c-1.56,2.38-.49,6.31-.67,9.17l.67.83h7.25v29.75c0,.88.74,4.39,1.03,5.47,2.58,9.57,15.08,9.49,22.97,8.28v-9.5c-3.25.06-8.04.48-9.93-2.82-.2-.34-1.07-2.75-1.07-2.93v-28.25h11v-9.25l-.75-.75h-10.25v-13ZM148.9,99.15c-18.84,1.51-26.28,18.86-22.67,35.87,5.59,26.37,44.59,26.39,50.03-.02,3.99-19.4-5.72-37.59-27.36-35.86ZM225,115c-.74-21.27-41.53-21.09-42.99-.74-1.21,16.77,16.34,15.16,26.83,19.15,8.43,3.2,4.64,10.91-3.07,11.61-6.15.56-10.17-.93-13.02-6.52h-12.25c2.19,23.68,50.35,20.67,45.44-4.19-2.82-14.26-24.73-9.9-30.22-16.28-7.62-8.86,16.18-14.38,17.28-3.03h12ZM360.9,99.15c-18.97,1.47-26.23,18.76-22.66,35.86,5.54,26.53,44.92,26.39,50.13-.4,3.74-19.24-6.16-37.11-27.46-35.46ZM83.5,108.5v-7.75l-.75-.75h-11.5l-.75.75v70.25h13v-26l4.76,5.49c39.77,23,47.31-57.98,7.21-50.76-5.26.95-9.07,4.54-11.98,8.77ZM426.5,111v-10.75l-.75-.75h-8c-2.72,0-6.97,3.84-8.35,6.15-.58.96-.56,2.48-1.4,2.85v-7.75l-.75-.75h-11.5l-.75.75v52.75h12.25l.75-.75v-33.5c0-.65,1.68-3.54,2.24-4.26,3.98-5.1,10.43-4.8,16.26-3.99ZM274,100h-12.5l14.02,53.48,13.17.05,10.56-38.54,10.27,38.48,13.51-.2,14.27-52.25-.55-1.03h-11.5l-9.5,40-10.19-39.71-11.33-.32-10.99,40.04-9.24-40Z"/>
  <path class="cls-1" d="M93.87,110.12c19.84-3.18,20.11,33.77,2.38,33.77-17,0-17.3-31.38-2.38-33.77Z"/>
  <path class="cls-1" d="M143.17,141.33c-7.58-7.2-6.66-30,6.12-31.78,19.13-2.66,18.54,31.52,5.74,34.23-3.93.83-8.85.41-11.86-2.45Z"/>
  <path class="cls-1" d="M360.88,109.63c12.62-1.84,16.01,10.45,15.11,20.61-.84,9.46-6.22,15.31-16.12,13.64-12.48-2.11-13.19-32.18,1.01-34.25Z"/>
</svg>