<?xml version="1.0" encoding="UTF-8"?>
<svg id="Layer_1" xmlns="http://www.w3.org/2000/svg" version="1.1" viewBox="0 0 607 265">
  <!-- Generator: Adobe Illustrator 30.3.0, SVG Export Plug-In . SVG Version: 2.1.3 Build 182)  -->
  <defs>
    <style>
      .st0 {
        fill: #fff;
        stroke: #000;
      }

      .st0, .st1 {
        stroke-miterlimit: 10;
      }

      .st1 {
        stroke: #fff;
      }
    </style>
  </defs>
  <rect x="-14" y="-3" width="635.1" height="277.3"/>
  <path class="st0" d="M450,80.7h-13.1v76.9h13.1v-19.6c0-.3,4.1-4.3,4.7-3.9l16.4,23,6.6.5,3.7,28.8c2.3-1.3,15.8-16.8,17.3-15.7l12,25.9,9.2-4.5-12.3-26.7,22-3.1-56.2-36.6,1.6,14.6-10.7-14.5,21.4-24.2h-14.4l-21.2,23v-43.9h0Z"/>
  <path class="st0" d="M246,88h-12.8l-.8.8v12.8h-7.6c-1.6,2.5-.5,6.6-.7,9.6l.7.9h7.6v31.1c0,.9.8,4.6,1.1,5.7,2.7,10,15.8,9.9,24,8.7v-9.9c-3.4,0-8.4.5-10.4-3-.2-.4-1.1-2.9-1.1-3.1v-29.6h11.5v-9.7l-.8-.8h-10.7v-13.6Z"/>
  <path class="st0" d="M141.8,100.8c-19.7,1.6-27.5,19.7-23.7,37.5,5.8,27.6,46.7,27.6,52.3,0,4.2-20.3-6-39.3-28.6-37.5h0Z"/>
  <path class="st0" d="M221.4,117.3c-.8-22.3-43.5-22.1-45-.8-1.3,17.5,17.1,15.9,28.1,20,8.8,3.3,4.9,11.4-3.2,12.1-6.4.6-10.6-1-13.6-6.8h-12.8c2.3,24.8,52.7,21.6,47.5-4.4-3-14.9-25.9-10.4-31.6-17-8-9.3,16.9-15,18.1-3.2h12.6Z"/>
  <path class="st0" d="M363.6,100.8c-19.8,1.5-27.4,19.6-23.7,37.5,5.8,27.8,47,27.6,52.4-.4,3.9-20.1-6.4-38.8-28.7-37.1h0Z"/>
  <path class="st0" d="M73.3,110.5v-8.1l-.8-.8h-12l-.8.8v73.5h13.6v-27.2l5,5.7c41.6,24.1,49.5-60.7,7.5-53.1-5.5,1-9.5,4.7-12.5,9.2h0Z"/>
  <path class="st0" d="M432.2,113.2v-11.2l-.8-.8h-8.4c-2.8,0-7.3,4-8.7,6.4-.6,1-.6,2.6-1.5,3v-8.1l-.8-.8h-12l-.8.8v55.2h12.8l.8-.8v-35c0-.7,1.8-3.7,2.3-4.5,4.2-5.3,10.9-5,17-4.2Z"/>
  <polygon class="st0" points="272.6 101.6 259.6 101.6 274.2 157.6 288 157.7 299.1 117.3 309.8 157.6 323.9 157.4 338.9 102.7 338.3 101.6 326.3 101.6 316.3 143.5 305.7 101.9 293.8 101.6 282.3 143.5 272.6 101.6 272.6 101.6"/>
  <path class="st1" d="M84.2,112.2c20.8-3.3,21,35.3,2.5,35.3s-18.1-32.8-2.5-35.3Z"/>
  <path class="st1" d="M135.8,144.9c-7.9-7.5-7-31.4,6.4-33.2,20-2.8,19.4,33,6,35.8-4.1.9-9.3.4-12.4-2.6Z"/>
  <path class="st1" d="M363.5,111.7c13.2-1.9,16.8,10.9,15.8,21.6-.9,9.9-6.5,16-16.9,14.3-13.1-2.2-13.8-33.7,1.1-35.8Z"/>
</svg>