<?xml version="1.0" encoding="UTF-8"?>
<svg xmlns="http://www.w3.org/2000/svg" xmlns:svg="http://www.w3.org/2000/svg" xmlns:sodipodi="http://sodipodi.sourceforge.net/DTD/sodipodi-0.dtd" xmlns:rdf="http://www.w3.org/1999/02/22-rdf-syntax-ns#" xmlns:inkscape="http://www.inkscape.org/namespaces/inkscape" xmlns:dc="http://purl.org/dc/elements/1.1/" xmlns:cc="http://creativecommons.org/ns#" version="1.1" viewBox="0 0 1000 759">
  <!-- Generator: Adobe Illustrator 30.3.0, SVG Export Plug-In . SVG Version: 2.1.3 Build 182)  -->
  <defs>
    <style>
      .st0 {
        fill: #e669a2;
      }

      .st1 {
        fill: #c14303;
      }

      .st2 {
        fill: #e3721c;
      }

      .st3 {
        fill: #ad1b02;
      }

      .st4 {
        fill: #f3bc87;
      }

      .st5 {
        fill: #d85604;
      }

      .st6 {
        fill: #f3be26;
      }

      .st7 {
        fill: #db4e18;
      }

      .st8 {
        fill: #c22303;
      }

      .st9 {
        fill: #ee9c34;
      }

      .st10 {
        fill: #fff;
        stroke: #000;
        stroke-miterlimit: 10;
      }

      .st11 {
        fill: #e88d14;
      }

      .st12 {
        fill: #d1390d;
      }
    </style>
  </defs>
  <g id="svg2" inkscape:version="0.47 r22583" sodipodi:docname="pwc.svg">
    <sodipodi:namedview id="namedview2890" bordercolor="#666666" borderopacity="1" gridtolerance="10" guidetolerance="10" inkscape:current-layer="svg2" inkscape:cx="500" inkscape:cy="379.49731" inkscape:pageopacity="0" inkscape:pageshadow="2" inkscape:window-height="725" inkscape:window-maximized="1" inkscape:window-width="1280" inkscape:window-x="-9" inkscape:window-y="-9" inkscape:zoom="0.62582788" objecttolerance="10" pagecolor="#ffffff" showgrid="false"/>
    <g id="_x3C_defs">
      <inkscape:perspective id="perspective2894" inkscape:persp3d-origin="500 : 252.99821 : 1" inkscape:vp_x="0 : 379.49731 : 1" inkscape:vp_y="0 : 1000 : 0" inkscape:vp_z="1000 : 379.49731 : 1" sodipodi:type="inkscape:persp3d"/>
      <inkscape:perspective id="perspective2938" inkscape:persp3d-origin="0.5 : 0.33333333 : 1" inkscape:vp_x="0 : 0.5 : 1" inkscape:vp_y="0 : 1000 : 0" inkscape:vp_z="1 : 0.5 : 1" sodipodi:type="inkscape:persp3d"/>
      <inkscape:perspective id="perspective2997" inkscape:persp3d-origin="0.5 : 0.33333333 : 1" inkscape:vp_x="0 : 0.5 : 1" inkscape:vp_y="0 : 1000 : 0" inkscape:vp_z="1 : 0.5 : 1" sodipodi:type="inkscape:persp3d"/>
      <inkscape:perspective id="perspective3018" inkscape:persp3d-origin="0.5 : 0.33333333 : 1" inkscape:vp_x="0 : 0.5 : 1" inkscape:vp_y="0 : 1000 : 0" inkscape:vp_z="1 : 0.5 : 1" sodipodi:type="inkscape:persp3d"/>
      <inkscape:perspective id="perspective3039" inkscape:persp3d-origin="0.5 : 0.33333333 : 1" inkscape:vp_x="0 : 0.5 : 1" inkscape:vp_y="0 : 1000 : 0" inkscape:vp_z="1 : 0.5 : 1" sodipodi:type="inkscape:persp3d"/>
      <inkscape:perspective id="perspective3060" inkscape:persp3d-origin="0.5 : 0.33333333 : 1" inkscape:vp_x="0 : 0.5 : 1" inkscape:vp_y="0 : 1000 : 0" inkscape:vp_z="1 : 0.5 : 1" sodipodi:type="inkscape:persp3d"/>
      <inkscape:perspective id="perspective3081" inkscape:persp3d-origin="0.5 : 0.33333333 : 1" inkscape:vp_x="0 : 0.5 : 1" inkscape:vp_y="0 : 1000 : 0" inkscape:vp_z="1 : 0.5 : 1" sodipodi:type="inkscape:persp3d"/>
      <inkscape:perspective id="perspective3102" inkscape:persp3d-origin="0.5 : 0.33333333 : 1" inkscape:vp_x="0 : 0.5 : 1" inkscape:vp_y="0 : 1000 : 0" inkscape:vp_z="1 : 0.5 : 1" sodipodi:type="inkscape:persp3d"/>
      <inkscape:perspective id="perspective3123" inkscape:persp3d-origin="0.5 : 0.33333333 : 1" inkscape:vp_x="0 : 0.5 : 1" inkscape:vp_y="0 : 1000 : 0" inkscape:vp_z="1 : 0.5 : 1" sodipodi:type="inkscape:persp3d"/>
      <inkscape:perspective id="perspective3144" inkscape:persp3d-origin="0.5 : 0.33333333 : 1" inkscape:vp_x="0 : 0.5 : 1" inkscape:vp_y="0 : 1000 : 0" inkscape:vp_z="1 : 0.5 : 1" sodipodi:type="inkscape:persp3d"/>
      <inkscape:perspective id="perspective3165" inkscape:persp3d-origin="0.5 : 0.33333333 : 1" inkscape:vp_x="0 : 0.5 : 1" inkscape:vp_y="0 : 1000 : 0" inkscape:vp_z="1 : 0.5 : 1" sodipodi:type="inkscape:persp3d"/>
      <inkscape:perspective id="perspective3186" inkscape:persp3d-origin="0.5 : 0.33333333 : 1" inkscape:vp_x="0 : 0.5 : 1" inkscape:vp_y="0 : 1000 : 0" inkscape:vp_z="1 : 0.5 : 1" sodipodi:type="inkscape:persp3d"/>
      <inkscape:perspective id="perspective3207" inkscape:persp3d-origin="0.5 : 0.33333333 : 1" inkscape:vp_x="0 : 0.5 : 1" inkscape:vp_y="0 : 1000 : 0" inkscape:vp_z="1 : 0.5 : 1" sodipodi:type="inkscape:persp3d"/>
      <inkscape:perspective id="perspective3228" inkscape:persp3d-origin="0.5 : 0.33333333 : 1" inkscape:vp_x="0 : 0.5 : 1" inkscape:vp_y="0 : 1000 : 0" inkscape:vp_z="1 : 0.5 : 1" sodipodi:type="inkscape:persp3d"/>
      <inkscape:perspective id="perspective3249" inkscape:persp3d-origin="0.5 : 0.33333333 : 1" inkscape:vp_x="0 : 0.5 : 1" inkscape:vp_y="0 : 1000 : 0" inkscape:vp_z="1 : 0.5 : 1" sodipodi:type="inkscape:persp3d"/>
      <inkscape:perspective id="perspective2840" inkscape:persp3d-origin="0.5 : 0.33333333 : 1" inkscape:vp_x="0 : 0.5 : 1" inkscape:vp_y="0 : 1000 : 0" inkscape:vp_z="1 : 0.5 : 1" sodipodi:type="inkscape:persp3d"/>
    </g>
    <path id="path4061" class="st0" d="M1000,325.9h-363.7v-93.1h363.7v93.1Z"/>
    <path id="path4103" class="st6" d="M952.8,325.9h-316.5V93.1h316.5v232.9h0Z"/>
    <path id="path4089" class="st9" d="M822,325.9h-185.7V0h185.7v325.9Z"/>
    <path id="path4075" class="st4" d="M858.5,325.9h-222.3V36.4h222.3v289.5Z"/>
    <path id="path4688" class="st2" d="M636.2,36.4v289.5h185.8V36.4s-185.8,0-185.8,0Z"/>
    <path id="path4119" class="st3" d="M450,325.9h186.2v46.6h-186.2v-46.6h0Z"/>
    <path id="path4698" class="st11" d="M636.2,93v232.9h222.4V93h-222.4Z"/>
    <path id="path4693" class="st5" d="M636.2,93v232.9h185.8V93h-185.8Z"/>
    <path id="path4117" class="st1" d="M752.4,325.9h-116.1v-139.8h116.1v139.8h0Z"/>
    <path id="path4713" class="st7" d="M636.2,232.9v93h316.6v-93h-316.6Z"/>
    <path id="path4708" class="st12" d="M636.2,232.9v93h222.4v-93h-222.4Z"/>
    <path id="path4703" class="st8" d="M636.2,232.9v93h185.8v-93h-185.8Z"/>
    <path id="path4625" class="st3" d="M636.2,232.9v93h116.3v-93h-116.3Z"/>
    <g id="g2925">
      <path id="path2850" class="st10" d="M676.8,501.2c-31.7,5.6-48.6,29.6-48.6,71.1s22.5,70.4,55.6,70.4,30.3-5.6,59.9-20.4v34.5c-35.9,16.9-57,21.1-85.2,21.1s-54.2-7.7-71.8-26.8c-18.3-18.3-28.2-42.3-28.2-69.7,0-59.9,45.1-101.4,110.6-101.4s73.2,20.4,73.2,49.3-14.1,32.4-34.5,32.4-19-3.5-31-9.9"/>
      <path id="path2852" class="st10" d="M518.3,581.5c28.9-35.9,39.4-50.7,39.4-68.3s-14.1-33.1-33.8-33.1-21.8,6.3-26.8,12v73.9l-47.2,63.4v-143.7h-45.1l-74.6,123.2v-123.2h-25.4l-68.3,15.5v17.6l37.3,3.5v152.8h47.2l71.8-118.3v118.3h52.8"/>
      <path id="path2862" class="st10" d="M93.7,651.2h10.6c38,0,59.2-23.2,59.2-69.7s-16.9-59.9-48.6-59.9-10.6.7-21.1,2.8v126.8h0ZM93.7,734.3l31,7v17.6H2.8v-17.6l28.2-7v-212.7H0v-17.6l73.9-22.5h19.7v25.4c34.5-21.1,46.5-24.6,64.8-24.6,40.8,0,71.8,38,71.8,90.8s-41.5,102.1-104.9,102.1-19-.7-31.7-1.4"/>
    </g>
  </g>
</svg>