<?xml version="1.0" encoding="UTF-8"?>
<svg id="Layer_2" data-name="Layer 2" xmlns="http://www.w3.org/2000/svg" viewBox="0 0 55.21 13.74">
  <defs>
    <style>
      .cls-1 {
        fill: #fff;
      }
    </style>
  </defs>
  <g id="Layer_1-2" data-name="Layer 1">
    <path class="cls-1" d="M9.26.78h-1.48v4.43h-1.48V.78h-1.48v-.78h4.43v.78Z"/>
    <path class="cls-1" d="M16.12,5.3h-1.48v-2.26h-2.17v2.26h-1.48V.09h1.48v2.17h2.26V.09h1.48v5.22h-.09Z"/>
    <path class="cls-1" d="M21.6,5.89h-4.43v-.7h1.48V1.45h-1.48v-.78h4.43v.7h-1.48v3.74h1.48v.78Z"/>
    <path class="cls-1" d="M27.6,4.52h-.7v.78h-3.74v-.7h-.78v-.78h1.48v.7h2.17v-1.48h-2.96v-.78h-.78V.78h.7V0h2.96v.7h.78v.78h-1.48v-.7h-1.48v1.48h2.96v.78h.78v1.48h.09Z"/>
    <path class="cls-1" d="M27.6,5.3c0-.35.26-.7.61-.7s.61.26.61.7-.26.7-.61.7-.61-.26-.61-.7Z"/>
    <path class="cls-1" d="M6.01,10.21h-.81v1.01H1.73v1.91H0v-6.74h5.19v.9h.92v2.92h-.1ZM4.28,10.21v-2.81H1.73v2.81h2.55Z"/>
    <path class="cls-1" d="M13.53,12.09h-.93v1.04h-4.99v-.93h-1.04v-4.99h.93v-1.04h4.99v.93h1.04v4.99ZM11.56,12.09v-4.87h-2.9v4.87h2.9Z"/>
    <path class="cls-1" d="M20.61,10.25h-1.97v.93h1.04v1.04h1.04v1.04h-2.9v-.93h-1.04v-1.04h-1.04v1.97h-1.97v-6.96h5.92v.93h1.04v3.02h-.12ZM18.64,9.21v-1.97h-2.9v2.9h1.97v-1.04h.93v.12Z"/>
    <path class="cls-1" d="M25.41,7.39h-1.83v6.34h-1.83v-6.34h-1.83v-1.12h5.49v1.12Z"/>
    <path class="cls-1" d="M32.25,7.7h-4.87v1.97h3.95v1.04h-3.95v3.02h-1.97v-6.96h6.96v.93h-.12Z"/>
    <path class="cls-1" d="M38.12,12.39h-.93v1.04h-4.99v-.93h-1.04v-4.99h.93v-1.04h4.99v.93h1.04v4.99ZM36.15,12.39v-4.87h-2.9v4.87h2.9Z"/>
    <path class="cls-1" d="M44.04,13.13h-5.92v-6.96h1.97v5.92h3.95v1.04Z"/>
    <path class="cls-1" d="M48.24,13.44h-5.92v-.93h1.97v-4.99h-1.97v-1.04h5.92v.93h-1.97v4.99h1.97v1.04Z"/>
    <path class="cls-1" d="M55.21,12.39h-.93v1.04h-4.99v-.93h-1.04v-4.99h.93v-1.04h4.99v.93h1.04v4.99h0ZM53.23,12.39v-4.87h-2.9v4.87h2.9Z"/>
  </g>
</svg>