<?xml version="1.0" encoding="UTF-8"?>
<svg id="Layer_1" xmlns="http://www.w3.org/2000/svg" version="1.1" viewBox="0 0 1920 1080">
  <!-- Generator: Adobe Illustrator 30.3.0, SVG Export Plug-In . SVG Version: 2.1.3 Build 182)  -->
  <defs>
    <style>
      .st0 {
        stroke: #fff;
        stroke-miterlimit: 10;
      }

      .st1 {
        display: none;
      }
    </style>
  </defs>
  <path d="M462.3,176.1h-1.5v4.4h-1.5v-4.4h-1.5v-.8h4.4v.7h.1Z"/>
  <path d="M469.2,180.6h-1.5v-2.3h-2.2v2.3h-1.5v-5.2h1.5v2.2h2.3v-2.2h1.5v5.2h0Z"/>
  <path d="M474.7,181.2h-4.4v-.7h1.5v-3.7h-1.5v-.8h4.4v.7h-1.5v3.7h1.5v.8Z"/>
  <path d="M480.7,179.9h-.7v.8h-3.7v-.7h-.8v-.8h1.5v.7h2.2v-1.5h-3v-.8h-.8v-1.5h.7v-.8h3v.7h.8v.8h-1.5v-.7h-1.5v1.5h3v.8h.8v1.5h0Z"/>
  <path d="M480.7,180.6c0-.3.3-.7.6-.7s.6.3.6.7-.3.7-.6.7-.6-.3-.6-.7Z"/>
  <path d="M459.1,185.6h-.8v1h-3.5v1.9h-1.7v-6.7h5.2v.9h.9v2.9h-.1ZM457.3,185.6v-2.8h-2.5v2.8h2.5Z"/>
  <path d="M466.6,187.4h-.9v1h-5v-.9h-1v-5h.9v-1h5v.9h1v5ZM464.6,187.4v-4.9h-2.9v4.9h2.9Z"/>
  <path d="M473.7,185.6h-2v.9h1v1h1v1h-2.9v-.9h-1v-1h-1v2h-2v-7h5.9v.9h1v3h-.1.1ZM471.7,184.5v-2h-2.9v2.9h2v-1h.9Z"/>
  <path d="M478.5,182.7h-1.8v6.3h-1.8v-6.3h-1.8v-1.1h5.5v1h-.1Z"/>
  <path d="M485.3,183h-4.9v2h3.9v1h-3.9v3h-2v-7h7v.9h-.1Z"/>
  <path d="M491.2,187.7h-.9v1h-5v-.9h-1v-5h.9v-1h5v.9h1v5ZM489.2,187.7v-4.9h-2.9v4.9h2.9Z"/>
  <path d="M497.1,188.5h-5.9v-7h2v5.9h3.9v1h0Z"/>
  <path d="M501.3,188.8h-5.9v-.9h2v-5h-2v-1h5.9v.9h-2v5h2v1Z"/>
  <path d="M508.3,187.7h-.9v1h-5v-.9h-1v-5h.9v-1h5v.9h1v5h0ZM506.3,187.7v-4.9h-2.9v4.9h2.9Z"/>
  <g>
    <path class="st0" d="M451.5,152.6l2.5.9v1.2l-3.8-1.6v-1l3.8-1.6v1.2l-2.5.9h0Z"/>
    <path class="st0" d="M460.1,153.2c0,.7-.3,1.2-.8,1.6-.5.4-1.1.6-1.8.6s-1.5-.3-1.9-.8c-.5-.6-.7-1.3-.7-2.3v-.4c0-.6.1-1.2.3-1.6s.5-.8.9-1.1.9-.4,1.4-.4,1.3.2,1.8.6.7,1,.8,1.7h-1.3c0-.4-.1-.7-.3-.9-.2-.2-.5-.3-.9-.3s-.8.2-1,.5-.3.8-.3,1.5v.5c0,.7.1,1.2.3,1.5.2.3.5.5,1,.5s.7,0,.9-.3.3-.5.3-.9h1.3Z"/>
    <path class="st0" d="M460.7,152.9c0-.5,0-.9.3-1.3s.4-.7.8-.9.7-.3,1.2-.3,1.2.2,1.6.6.6.9.7,1.6v.3c0,.7-.2,1.3-.6,1.8s-1,.7-1.6.7-1.2-.2-1.6-.7c-.4-.4-.6-1-.6-1.8h-.2ZM462,153c0,.5,0,.8.3,1,.2.2.4.4.7.4s.5-.1.7-.4c.2-.2.3-.6.3-1.1s0-.8-.3-1-.4-.4-.7-.4-.6.1-.7.4c-.2.2-.3.6-.3,1.1Z"/>
    <path class="st0" d="M465.8,152.9c0-.7.2-1.3.5-1.8.3-.4.8-.7,1.4-.7s.8.2,1.1.5v-2.4h1.3v6.8h-1.1v-.5c-.4.4-.8.6-1.3.6s-1-.2-1.3-.7c-.3-.4-.5-1.1-.5-1.8h-.1ZM467.1,153c0,.4,0,.8.2,1s.4.4.7.4.7-.2.8-.5v-1.9c-.2-.3-.4-.5-.8-.5-.6,0-.9.5-.9,1.5h0Z"/>
    <path class="st0" d="M473.2,155.4c-.7,0-1.3-.2-1.7-.6-.4-.4-.7-1-.7-1.7h0c0-.6,0-1,.3-1.4s.4-.7.8-.9c.3-.2.7-.3,1.2-.3s1.2.2,1.5.6c.4.4.6,1,.6,1.7v.5h-3c0,.3.2.6.4.7.2.2.5.3.8.3.5,0,.9-.2,1.1-.5l.6.7c-.2.3-.4.5-.8.6-.3.2-.7.2-1.1.2h0ZM473.1,151.5c-.3,0-.5,0-.6.3-.2.2-.3.4-.3.7h1.8c0-.4,0-.6-.2-.8-.1-.2-.4-.2-.6-.2h0Z"/>
    <path class="st0" d="M478.6,149h1.3v4.4c0,.4,0,.8-.3,1.1-.2.3-.4.6-.8.7s-.7.3-1.1.3c-.7,0-1.2-.2-1.6-.5s-.6-.8-.6-1.5h1.3c0,.3,0,.5.2.7s.3.2.6.2.5,0,.6-.3.2-.4.2-.7v-4.4h.2Z"/>
    <path class="st0" d="M480.8,152.9c0-.5,0-.9.3-1.3s.4-.7.8-.9.7-.3,1.2-.3,1.2.2,1.6.6.6.9.7,1.6v.3c0,.7-.2,1.3-.6,1.8s-1,.7-1.6.7-1.2-.2-1.6-.7c-.4-.4-.6-1-.6-1.8h-.2ZM482,153c0,.5,0,.8.3,1,.2.2.4.4.7.4s.5-.1.7-.4c.2-.2.3-.6.3-1.1s0-.8-.3-1-.4-.4-.7-.4-.6.1-.7.4c-.2.2-.3.6-.3,1.1Z"/>
    <path class="st0" d="M488.9,154.9c-.3.4-.7.6-1.3.6s-.9-.1-1.2-.4c-.3-.3-.4-.7-.4-1.3v-3.1h1.3v3.1c0,.5.2.7.7.7s.7-.1.9-.4v-3.4h1.3v4.8h-1.2v-.5h0Z"/>
    <path class="st0" d="M493.7,151.8h-.5c-.5,0-.8.2-.9.5v3.1h-1.3v-4.8h1.2v.6c.3-.4.6-.7,1.1-.7s.3,0,.4,0v1.2h0Z"/>
    <path class="st0" d="M495.5,150.6v.5c.4-.4.8-.6,1.4-.6s.9.1,1.1.4.4.7.4,1.3v3.1h-1.3v-3c0-.3,0-.5-.2-.6-.1-.1-.3-.2-.6-.2s-.6.2-.8.5v3.4h-1.3v-4.8h1.3Z"/>
    <path class="st0" d="M502.2,155.4c0-.1-.1-.3-.1-.4-.3.3-.7.5-1.2.5s-.9-.1-1.2-.4-.5-.6-.5-1,.2-.9.6-1.2.9-.4,1.6-.4h.6v-.3c0-.2,0-.4-.2-.5s-.3-.2-.5-.2-.4,0-.5.2-.2.2-.2.4h-1.3c0-.3,0-.5.3-.8s.4-.4.7-.6.7-.2,1-.2c.6,0,1.1.1,1.4.4.3.3.5.7.5,1.2v2.1c0,.5,0,.8.2,1h-1.3v.2ZM501.1,154.5c.2,0,.4,0,.5-.1.2,0,.3-.2.4-.3v-.8h-.5c-.6,0-1,.2-1,.7h0c0,.2,0,.4.2.5s.3.2.5.2v-.2Z"/>
    <path class="st0" d="M505.6,155.4h-1.3v-6.8h1.3v6.8Z"/>
    <path class="st0" d="M509.2,152.6l-2.6-.9v-1.2l3.8,1.6v1l-3.8,1.6v-1.2l2.6-.9h0Z"/>
  </g>
  <rect class="st0" x="549.5" y="507.3" width="58.2" height="19.8"/>
  <g id="C6X44r.tif-2" class="st1">
    <g>
      <path class="st0" d="M441.3,370.5c-.6,0-1.2,0-1.7-.2-.9-.3-1.7-.8-2.2-1.6-.1-.2-.2-.4-.3-.6,0,0-.1-.2,0-.3h0c-.2-.3-.2-.5-.2-.7,0-.3-.1-.7,0-1,0-.8.2-1.5.6-2.1.2-.3.4-.6.7-.8,0,0,.1,0,0-.1h-.2c-.3,0-.7,0-1,.1h-.3c0-.1.1-.1.2-.2.2-.1.5-.1.7-.3,0,0,.2-.2,0-.3-.1,0,0-.2,0-.2.1,0,.3-.2.3-.3.1-.3.4-.4.7-.5.1,0,.3,0,.4.3v.3c0,.2.3.3.4.2.1-.1.2-.1.4,0,.1,0,.3,0,.2-.2,0-.2,0-.4.1-.5v-.2h-1q0-.1.1-.1c.3,0,.4-.4.7-.5v-.3c0-.1,0-.2.2-.3h.3c.3.3.7.6,1.2.7.3,0,.5.2.6.5.2.3.3.6.5.9,0,.2.1.2.3.3,1.3.4,2.3,1.2,2.8,2.5.6,1.8.3,3.4-1.1,4.8s-1.5,1-2.5,1.1h-.9v-.4ZM443,366.2c0-1-.7-1.7-1.7-1.7s-1.7.7-1.7,1.7.7,1.7,1.7,1.7,1.7-.7,1.7-1.7h0Z"/>
      <path class="st0" d="M466,364.8v2.9h.3c.4-.1.6-.5.8-.8v-.4c0-.1,0-.2.2-.2s.3,0,.5.1c0,.1.1.2,0,.3-.1.1-.1.2,0,.4,0,.1,0,.2-.1.3-.2.1-.4.4-.7.5h0c0,.4-.3.5-.5.6-.1,0-.2.1-.3.3,0,.2-.2.2-.4.3-.1,0-.2.2-.3.3-.3.3-.5.7-.8,1s-.3.2-.5.3c-.5.2-1,.5-1.4.9,0,0-.2.2-.3.2-.2.2-.3.4-.3.7h0c-.3.1-.2.5-.4.6,0,0-.1.2-.2.1-.1,0,0-.1,0-.2h0c0-.1,0-.2-.2,0l-.2.2s0,.1-.1.1c-.2-.1-.3,0-.3.2-.1.3-.4.4-.7.2h-.2q-.2,0-.3-.2c0-.2.2-.5.3-.6.2-.2.5-.2.7-.2.4,0,.7-.2.9-.4.2-.1.3-.2.4-.4.1-.2.3-.4.5-.5.3-.1.4-.4.6-.6h0q0-.1-.1-.1h-1.1c-1,0-1.9-.3-2.6-.9-.4-.3-.6-.8-.8-1.2-.2-.6-.3-1.3-.2-1.9v-4.3c0-.2,0-.3.2-.3h2.5q.2,0,.2.2v5c.2.6,1,.9,1.4.5s.3-.5.3-.8v-4.7c0-.2,0-.3.2-.3h2.5q.2,0,.2.2v2.6h.3Z"/>
      <path class="st0" d="M450.7,362h1.8c.5,0,1.1.1,1.6.3.8.3,1.3.9,1.6,1.8.4,1.2.3,2.2-.5,3.2-.7.8-1.6,1.1-2.6,1.1h-1c-.2,0-.3,0-.3.3v1.4c0,.1,0,.2-.2.2h-2.5q-.2,0-.2-.2v-7.9q0-.2.2-.2h2.1ZM451.3,365.2v.7q0,.2.2.2h.8c.5-.1.7-.4.6-1,0-.4-.4-.7-.8-.7h-.6q-.2,0-.2.2v.6h0Z"/>
      <path class="st0" d="M460.8,375c-.2,0-.4-.3-.3-.5,0-.3.2-.5.5-.6.2-.1.5-.2.4-.5h.1v.2c0,.2-.1.3,0,.5.1.3-.4,1-.7,1h0Z"/>
      <path class="st0" d="M435.6,363.9h-.6v-.2c0-.1.2-.2.3-.3,0,0,.3-.1.2-.3h.6q0,.1-.1.2c-.2.1-.5.2-.6.4h.2v.2h0Z"/>
      <path class="st0" d="M435.6,363.9v-.2c.3,0,.6,0,.9-.3h0c.1,0,.3,0,.3.1,0,.2-.1.2-.3.2-.3,0-.7,0-1,.1h.1Z"/>
      <g>
        <path class="st0" d="M489.5,368h-.7c-.2,0-.3,0,0-.2v-.2h-1.1c-.4-.2-.7-.3-1,0h0q-.2,0-.3-.2t-.4-.4-.1-.2s0-.1.1-.2c0-.2.2-.3.2-.5s.2-.2.4-.3c0,0,.1,0,.1.1.4.5,1.2.6,1.6.2s.2-.3.3-.4v-.3c-.2-.1-.5-.1-.4-.4q0-.1-.1,0c-.3.3-.6,0-.8,0s-.2-.3-.4-.1c0,.1-.2.2-.2.4v.2c0,.2-.2.3-.4.1s-.2,0-.3,0v.2s.2.1.2.2c-.3,0-.5-.1-.4-.4,0-.4.2-.7.5-1l.3-.3s.2-.1,0-.2c-.1-.1-.2,0-.3,0-.1.1-.2.3-.3.4,0,.1-.2.2-.4.3,0-.1,0-.3-.2-.2-.3.2-.7.2-1,.5v-.2c-.3-.9-.7-1.9-1-2.8,0-.1-.1-.2-.2-.2h-2.7c-.9,0-.2,0-.2.1,0,.2-.1.4-.2.6-.2.3-.3.7-.4,1.1h0c-.2.8-.5,1.5-.7,2.1-.4,1.2-.9,2.3-1.3,3.5-.1.3-.3.7-.4,1.1h3c.1,0,.2,0,.2-.2s.2-.5.2-.7.2-.2.3-.2h1.9c.1,0,.2,0,.3.2,0,.2.2.5.2.7s.1.2.3.2h2.6c.8,0,.3,0,.2-.3-.2-.5-.4-1-.6-1.5v-.2c.2,0,.4-.2.7-.1.3.1.7.2,1,.3h.2c.2.2.5.2.8.3.3.1.3,0,.3-.3s0-.6.5-.5h.3c0-.1-.2-.1-.2-.1ZM482.2,367.4h-1q-.2,0-.2-.2c.2-.5.3-1.1.5-1.6,0-.1,0-.2.1-.3.2.7.4,1.4.7,2q0,.2-.2.2h.1Z"/>
        <path class="st0" d="M479.6,361.2h1.1q.2,0,.3-.2c0-.2.2-.2.3-.2s.2.1.3.2c.4.2.7.3,1.2.2.2,0,.4,0,.5-.2.4-.3.5-.7.5-1.1v-.3s0-.1-.1-.1h-1.3c-.5,0,0,0-.1,0,0,.3-.2.4-.5.2-.3-.1-.5-.3-.8-.3-.6,0-1.1,0-1.4.6-.2.3-.2.7-.2,1.1s0,0,.2,0h0Z"/>
      </g>
      <path class="st0" d="M476.2,362.2c0-.2,0-.3-.3-.3h-7.4c-.1,0-.2,0-.2.2v2.3q0,.2.2.2h1.8q.4,0,.4.4v5.2q0,.2.2.2h2.5q.2,0,.2-.2v-5.2c0-.3,0-.4.4-.4h1.6c.5,0,.5.1.5-.5s-.1-1.3,0-1.9h.1Z"/>
      <path class="st0" d="M435.4,363.8h0Z"/>
    </g>
  </g>
  <g>
    <path class="st0" d="M456.5,404.6v3.1c0,.3,0,.5-.4.4h-2.2c-.2,0-.3,0-.3-.3v-7.8c0-.2,0-.3.3-.3h1.9c.3,0,.4.2.5.3.7,1,1.4,1.9,2.2,2.9,0,.1.2.2.3.4v-3.2c0-.2,0-.4.3-.4h2.2c.3,0,.3.1.3.4v7.7c0,.3-.1.4-.4.3h-1.4c-.5,0-.7-.2-1-.5-.8-1-1.5-2.1-2.3-3.1h0Z"/>
    <path class="st0" d="M475.8,403.9v-3.8c0-.3,0-.4.4-.4h5.1c.3,0,.4,0,.4.3v1.8q0,.3-.3.3h-2.3q-.3,0-.3.3t1,1h1.3c.3,0,.4,0,.4.4v1.7c0,.3,0,.4-.4.4h-2q-.3,0-.3.3v1.6c0,.2,0,.3-.3.3h-2.2c-.3,0-.4,0-.4-.4v-3.9h-.1Z"/>
    <g>
      <path class="st0" d="M448.9,399.9c-.5-.2-.7-.4-.9-.8-.2-.4-.3-.8-.8-.9s-.9-.3-1.3-.7c-.2-.2-.4-.2-.5.1,0,.4-.3.6-.6.8,0,0-.3,0-.2.2,0,.1.2,0,.3,0h.6c.1.2,0,.4,0,.6-.1.3-.5.1-.7.2-.1,0-.2-.1-.3-.2-.2-.6-.3-.6-.9-.3-.1,0-.2.2-.3.3-.4.4-.4,1.1-1.1,1.2,0,0-.2,0-.1.2,0,0,.1.1.2,0,.3,0,.7,0,1.1-.1-.1.5-.6.6-.7,1-.3.8-.4,1.6-.4,2.4,0,1.2.4,2.2,1.3,3,1.1,1,2.4,1.2,3.8,1.1,1.7-.1,3-.9,3.8-2.5,1-2.2,0-5-2.3-5.8v.2ZM446.8,405.6c-.9,0-1.6-.7-1.6-1.7s.7-1.7,1.7-1.7,1.6.7,1.6,1.7-.7,1.7-1.7,1.6h0Z"/>
      <path class="st0" d="M442.3,401.3c0-.2-.3-.1-.4,0-.3.1-.6.2-.9.2.2-.3.5-.3.7-.6-.4-.1-.7,0-1.1.6,0,0-.1.1,0,.2,0,.1.2.1.3,0,.4-.1.8-.2,1.2-.2s.4,0,.3-.2h-.1Z"/>
    </g>
    <g>
      <path class="st0" d="M495,405.8c0-.1-.1,0-.2,0-.2,0-.7.2-.5-.4,0-.1-.1-.1-.2,0-.4,0-.8,0-1.2-.1h-.3c-.3.1-.6.3-.6-.2,0,0-.1-.2-.2-.2-.4,0-.3-.2-.1-.5,0,0,0-.2.1-.2.1-.4.3-.5.6-.2.6.5,1.4.4,1.7-.2,0-.2.2-.4,0-.5-.3-.1-.4-.7-.9-.4-.1,0-.4,0-.5-.1-.3-.3-.5,0-.5.2,0,.4-.3.5-.7.4v.5c-.4,0-.4-.2-.1-.7h0c0-.3.2-.5.4-.7.1-.1.3-.2.3-.4h0c-.2,0-.3.2-.4.4-.1.1-.3.4-.4.3-.4-.3-.7,0-.9,0-.3.2-.4,0-.5-.2-.3-.8-.6-1.5-.8-2.3-.1-.4-.3-.5-.7-.5h-2c-.2,0-.6,0-.7.2-.1.4-.2.7.1,1,0,0,.2.2.1.3,0,.1-.2.1-.4.1-.3-.1-.5,0-.6.3-.7,2-1.4,3.9-2.2,5.9-.1.4,0,.4.3.4h2.3c.2,0,.3-.1.4-.3,0-.3.2-.6.3-.9,0-.3.3-.5.5-.2.3.4.7.3,1,.3q.8,0,1.1.7c0,.2.2.3.4.3h2.5c.2,0,.3-.1.2-.3-.1-.3-.3-.7-.4-1,0-.2-.3-.4-.1-.5.2-.2.4-.1.7-.1s.2,0,.3.1c.5.2,1,.3,1.6.5.2,0,.3,0,.3-.1,0-.5.2-.7.6-.6,0,0,.2,0,.2-.2h.1ZM487.6,405.1q-1,0-.7-.9c.1-.4.2-.8.4-1.1.2.6.4,1.2.6,1.7,0,.2,0,.3-.2.3h0Z"/>
      <path class="st0" d="M485.2,398.8c.2.1,1.3,0,1.5-.2,0-.1.2-.2.3,0,.2,0,.4.2.5.3,1,.4,1.9,0,1.9-1.2s-.2-.5-.5-.5h-.7c-.1,0-.3,0-.3.1-.1.4-.4.2-.6.1-.1,0-.3-.2-.4-.2-1-.4-2,.3-1.8,1.4v.2h.1Z"/>
      <path class="st0" d="M491.3,403.4h0c0-.1,0-.2.2-.2,0,0,0-.1-.1-.2h0v.4s.1,0,0,0h-.1Z"/>
    </g>
    <path class="st0" d="M473.4,408c-1-2.7-2-5.4-3-8,0-.2-.2-.2-.4-.2h-2.4c-.3,0-.4.1-.4.3-.2.5-.3.9-.5,1.4-.8,2.2-1.7,4.5-2.5,6.7h2.4c.6,0,.9-.1.9-.7s.2-.4.5-.4h1.5c.5,0,.8.1.9.6,0,.2,0,.4.3.4h2.9c0-.1-.2,0-.2,0ZM469.3,405.2h-1q-.2,0-.2-.3c.2-.7.4-1.3.6-2h.1c.2.7.4,1.3.7,2,0,.2,0,.3-.2.3Z"/>
  </g>
  <path class="st0" d="M568.8,509.7h7c3,.4,3.9,3.9,2.9,6.5,2,2.3,1.3,7.3-2.2,7.7-2.4.2-5.1-.2-7.5,0h-.3v-14h.2v-.2ZM572.6,515.1h1.7s.5-.3.5-.4c.2-.3.3-.8,0-1.1s-.5-.5-.6-.5h-1.7v2.1h0ZM572.6,518.5v2h0c0,0,2.2,0,2.2,0l.5-.3c.4-.4.4-1,0-1.4s-.5-.4-.6-.4h-2.3Z"/>
  <path class="st0" d="M588.8,520.6h0v2.9c0,.4,0,.3-.2.4h-8.7v-13.9h8.8v2.8c0,.4,0,.5-.3.5h-4.6v2h4.2v3q0,.3-.2.3h-4v2h0c0,0,4.6,0,4.6,0h.2Z"/>
  <path class="st0" d="M557,517.9l3-8.1h3.9v.4l-5,13.5h-3.6c-.8,0-.2,0-.3,0l-5.1-13.8c0-.2,0-.2.3-.3h3.3c.7,0,.2,0,.3.1l3,8h.2v.2Z"/>
  <path class="st0" d="M598.5,509.7v.2c0,1.3.5,4.9,2.1,5.2s2.7-2.7,2.8-4.2,0-.9.2-1.2h3.8c.3,2.8-.7,6.5-3.3,7.9-.2,0-.9.4-1,.5-.2.8.2,5.2,0,5.7s0,0-.2,0h-3.3c-.7,0-.4,0-.4-.3v-5.4c-2.6-.9-3.9-3.3-4.3-5.9s-.3-2,0-2.3,0-.1,0-.1h3.7Z"/>
  <path class="st0" d="M593.3,509.7s0,.2,0,.3v10.6h4.4v3c0,.1,0,0-.2,0h-8.2v-14h0c0-.1,3.7-.1,3.7-.1h.1Z"/>
  <path class="st0" d="M568,509.7v.5c0,4.2.4,8.7,0,12.8,0,0,0,.7,0,.7-1.1,0-2.4,0-3.5,0s-.4,0-.4-.3v-13.7h.2c0-.1,3.7-.1,3.7-.1h0Z"/>
</svg>