<?xml version="1.0" encoding="UTF-8"?>
<svg id="Layer_1" xmlns="http://www.w3.org/2000/svg" version="1.1" viewBox="0 0 1920 1080">
  <!-- Generator: Adobe Illustrator 29.7.1, SVG Export Plug-In . SVG Version: 2.1.1 Build 8)  -->
  <defs>
    <style>
      .st0 {
        fill: #fff;
      }
    </style>
  </defs>
  <path class="st0" d="M462.3,176.1h-1.5v4.4h-1.5v-4.4h-1.5v-.8h4.4v.7h0Z"/>
  <path class="st0" d="M469.2,180.6h-1.5v-2.3h-2.2v2.3h-1.5v-5.2h1.5v2.2h2.3v-2.2h1.5v5.2h0Z"/>
  <path class="st0" d="M474.7,181.2h-4.4v-.7h1.5v-3.7h-1.5v-.8h4.4v.7h-1.5v3.7h1.5v.8Z"/>
  <path class="st0" d="M480.7,179.9h-.7v.8h-3.7v-.7h-.8v-.8h1.5v.7h2.2v-1.5h-3v-.8h-.8v-1.5h.7v-.8h3v.7h.8v.8h-1.5v-.7h-1.5v1.5h3v.8h.8v1.5h0Z"/>
  <path class="st0" d="M480.7,180.6c0-.3.3-.7.6-.7s.6.3.6.7-.3.7-.6.7-.6-.3-.6-.7Z"/>
  <path class="st0" d="M459.1,185.6h-.8v1h-3.5v1.9h-1.7v-6.7h5.2v.9h.9v2.9h-.1ZM457.3,185.6v-2.8h-2.5v2.8h2.5Z"/>
  <path class="st0" d="M466.6,187.4h-.9v1h-5v-.9h-1v-5h.9v-1h5v.9h1v5ZM464.6,187.4v-4.9h-2.9v4.9h2.9Z"/>
  <path class="st0" d="M473.7,185.6h-2v.9h1v1h1v1h-2.9v-.9h-1v-1h-1v2h-2v-7h5.9v.9h1v3h-.1ZM471.7,184.5v-2h-2.9v2.9h2v-1h.9Z"/>
  <path class="st0" d="M478.5,182.7h-1.8v6.3h-1.8v-6.3h-1.8v-1.1h5.5v1h0Z"/>
  <path class="st0" d="M485.3,183h-4.9v2h3.9v1h-3.9v3h-2v-7h7v.9h-.1Z"/>
  <path class="st0" d="M491.2,187.7h-.9v1h-5v-.9h-1v-5h.9v-1h5v.9h1v5ZM489.2,187.7v-4.9h-2.9v4.9h2.9Z"/>
  <path class="st0" d="M497.1,188.5h-5.9v-7h2v5.9h3.9v1Z"/>
  <path class="st0" d="M501.3,188.8h-5.9v-.9h2v-5h-2v-1h5.9v.9h-2v5h2v1Z"/>
  <path class="st0" d="M508.3,187.7h-.9v1h-5v-.9h-1v-5h.9v-1h5v.9h1v5h0ZM506.3,187.7v-4.9h-2.9v4.9h2.9Z"/>
</svg>