<?xml version="1.0" encoding="UTF-8"?>
<svg id="Layer_2" data-name="Layer 2" xmlns="http://www.w3.org/2000/svg" viewBox="0 0 58.22 19.8">
  <defs>
    <style>
      .cls-1, .cls-2 {
        fill: #fff;
      }

      .cls-2 {
        opacity: 0;
      }
    </style>
  </defs>
  <g id="Layer_1-2" data-name="Layer 1">
    <rect class="cls-2" width="58.22" height="19.8"/>
    <path class="cls-1" d="M19.34,2.47h7c3.01.44,3.91,3.94,2.85,6.45,2.02,2.32,1.32,7.33-2.19,7.66-2.39.22-5.11-.16-7.53,0l-.26-.1-.03-13.88.16-.13ZM23.15,7.83h1.69c.09,0,.46-.3.53-.4.23-.3.32-.79.13-1.13s-.52-.54-.6-.54h-1.75v2.08ZM23.15,11.2v2.04l.11.11h2.15s.47-.26.54-.32c.36-.36.37-.99.1-1.39s-.47-.43-.57-.43h-2.34Z"/>
    <path class="cls-1" d="M39.33,13.28s.13.11.14.14c.07.16.07,2.44.04,2.77s0,.3-.2.37h-8.37s-.26-.09-.26-.09V2.55l8.63-.09c.06.01.13.07.16.13.07.16.06,2.42.04,2.77s-.06.46-.33.46h-4.56v2.01h3.99s.17.1.22.14c.07.13.07,2.61.04,2.91s-.09.32-.19.32h-4.04v1.98l.11.11h4.59-.01Z"/>
    <path class="cls-1" d="M7.52,10.63l2.97-8.1h3.87v.44s-5,13.51-5,13.51c-.07.07-.27.09-.37.09-.83.06-2.42.09-3.23,0s-.2,0-.29-.07L.35,2.71c.03-.2.14-.23.32-.26.67-.09,2.61-.07,3.31,0s.24,0,.33.1l3.01,7.96.22.1h-.01Z"/>
    <path class="cls-1" d="M48.99,2.45l.11.17c0,1.33.34,4.92,1.99,5.25s2.67-2.67,2.81-4.17-.11-.9.19-1.25h3.76c.33,2.77-.73,6.48-3.33,7.9-.17.1-.95.39-.98.46-.16.85.22,5.25-.11,5.69s-.13.06-.22.07c-.7.09-2.58.07-3.31,0s-.37-.04-.39-.33v-5.43c-2.58-.9-3.87-3.31-4.29-5.91s-.26-2.04-.13-2.31.13-.14.14-.14h3.74Z"/>
    <path class="cls-1" d="M43.8,2.45s.14.23.14.26v10.64h4.27s.13.11.14.14c.07.14.07,2.8,0,2.94s-.1.11-.16.13l-8.2-.09-.03-13.88s.13-.14.14-.14h3.7-.01Z"/>
    <path class="cls-1" d="M18.56,2.45l.14.53c-.23,4.2.29,8.68,0,12.83,0,.14-.06.66-.14.72-1.1-.03-2.41.14-3.48.03s-.37-.04-.39-.33l.04-13.67s.13-.14.14-.14h3.7v.03Z"/>
  </g>
</svg>