<?xml version="1.0" encoding="UTF-8"?>
<svg id="Layer_1" xmlns="http://www.w3.org/2000/svg" version="1.1" viewBox="0 0 420 121">
  <!-- Generator: Adobe Illustrator 29.6.1, SVG Export Plug-In . SVG Version: 2.1.1 Build 9)  -->
  <defs>
    <style>
      .st0 {
        fill: #fff;
      }
    </style>
  </defs>
  <path class="st0" d="M140.4,9.1h48.8c21,3.1,27.3,27.5,19.9,45,14.1,16.2,9.2,51.1-15.3,53.4-16.7,1.5-35.6-1.1-52.5,0l-1.8-.7-.2-96.8,1.1-.9ZM167,46.5h11.8c.6,0,3.2-2.1,3.7-2.8,1.6-2.1,2.2-5.5.9-7.9s-3.6-3.8-4.2-3.8h-12.2v14.5ZM167,70v14.2l.8.8h15c.2,0,3.3-1.8,3.8-2.2,2.5-2.5,2.6-6.9.7-9.7s-3.3-3-4-3h-16.2Z"/>
  <path class="st0" d="M279.8,84.5c.2,0,.9.8,1,1,.5,1.1.5,17,.3,19.3s0,2.1-1.4,2.6h-58.4c0,.1-1.8-.6-1.8-.6V9.7l60.2-.6c.4.1.9.5,1.1.9.5,1.1.4,16.9.3,19.3s-.4,3.2-2.3,3.2h-31.8v14h27.8c.2,0,1.2.7,1.5,1,.5.9.5,18.2.3,20.3s-.6,2.2-1.3,2.2h-28.2v13.8l.8.8h32Z"/>
  <path class="st0" d="M58,66l20.7-56.5h27s.1,3.1.1,3.1l-35,94.2c-.5.5-1.9.6-2.6.6-5.8.4-16.9.6-22.5,0s-1.4,0-2-.5L8,10.8c.2-1.4,1-1.6,2.2-1.8,4.7-.6,18.2-.5,23.1,0s1.7,0,2.3.7l21,55.5,1.5.7Z"/>
  <path class="st0" d="M347.2,9l.8,1.2c0,9.3,2.4,34.3,13.9,36.6s18.6-18.6,19.6-29.1-.8-6.3,1.3-8.7h26.2c2.3,19.3-5.1,45.2-23.2,55.1-1.2.7-6.6,2.7-6.8,3.2-1.1,5.9,1.5,36.6-.8,39.7s-.9.4-1.5.5c-4.9.6-18,.5-23.1,0s-2.6-.3-2.7-2.3v-37.9c-18-6.3-27-23.1-29.9-41.2s-1.8-14.2-.9-16.1.9-1,1-1h26Z"/>
  <path class="st0" d="M311,9c0,0,1,1.6,1,1.8v74.2h29.8c0,0,.9.8,1,1,.5,1,.5,19.5,0,20.5s-.7.8-1.1.9l-57.2-.6-.2-96.8c.1-.2.9-1,1-1h25.8Z"/>
  <path class="st0" d="M135,9l1,3.7c-1.6,29.3,2,60.5,0,89.5,0,1-.4,4.6-1,5-7.7-.2-16.8,1-24.3.2s-2.6-.3-2.7-2.3l.3-95.3c.1-.2.9-1,1-1h25.8Z"/>
</svg>