<?xml version="1.0" encoding="UTF-8"?>
<svg id="Layer_2" data-name="Layer 2" xmlns="http://www.w3.org/2000/svg" viewBox="0 0 2705.5 554.84">
  <defs>
    <style>
      .cls-1 {
        fill: #fff;
      }
    </style>
  </defs>
  <g id="Layer_1-2" data-name="Layer 1">
    <g>
      <path class="cls-1" d="M796.13,373.74c0,51.75-.65,103.51.38,155.23.33,16.33-3.1,22.43-20.93,21.67-35.52-1.52-71.16-.82-106.74-.24-11.57.19-15.74-3.05-15.7-15.19.39-129.53.34-259.06.06-388.59-.02-10.63,3.07-14.72,14.14-14.53,31.03.54,62.1.79,93.12-.1,13.4-.39,18.3,8.63,24.47,16.86,35.72,47.65,71.3,95.4,107,143.06,4.4,5.87,9.24,11.41,15.33,18.89,4.9-9.87,2.43-18,2.39-25.69-.25-45.18-.51-90.36-1.36-135.52-.22-11.61,1.44-17.97,15.69-17.62,37.08.91,74.21.87,111.29,0,13.94-.33,15.88,5.55,15.85,17.4-.33,128.02-.47,256.05.15,384.07.07,14.95-5.5,17.47-18.53,16.99-23.44-.87-47.15-2.18-70.35.31-22.93,2.46-35.54-7.47-47.94-24.74-37.28-51.93-76.02-102.83-114.19-154.13-1.38.62-2.76,1.25-4.14,1.87Z"/>
      <path class="cls-1" d="M1752.27,340.06c0-63.21.5-126.43-.36-189.63-.21-15.17,4.46-18.83,19.15-18.71,84.74.66,169.49.6,254.23.04,13.39-.09,18.52,2.58,17.93,17.13-1.22,30.05-.93,60.2-.11,90.28.34,12.52-3.11,16.86-16.26,16.57-37.81-.83-75.67.21-113.48-.56-12.7-.26-16.39,3.29-16.58,16.16-.72,49.73-1.22,49.72,48.28,49.72,21.94,0,43.93.82,65.81-.28,14.59-.74,17.84,4.95,17.38,18.33-.94,27.81-.97,55.7,0,83.51.48,13.78-3.68,18.32-17.81,17.89-32.51-.97-65.08.34-97.59-.62-13.3-.39-16.41,4.15-16,16.51.87,26.31-.34,52.69.53,79,.39,11.9-3.21,15.31-15.16,15.07-37.06-.75-74.16-.93-111.21.05-14.62.39-19.34-3.32-19.13-18.56.88-63.95.37-127.93.37-191.89Z"/>
      <g>
        <path class="cls-1" d="M415.55,139.27c-22.81-8.13-36.83-19.8-46.01-41.66-7.74-18.43-17.04-38.91-38.95-44.32-24.2-5.98-45.41-15.74-63.74-32.47-10.34-9.44-20.62-8.43-23.2,6.19-3.31,18.68-16.85,27.66-30,37.64-4.34,3.29-14.1,3.28-10.27,11.54,3.18,6.86,10.58,3.16,16.02,1.01,11.48-4.55,24.56-4.88,31.7,3.9,6.6,8.12-1.02,20.47-4.33,29.53-6.02,16.5-24.2,5.77-36.1,11.54-7.05,3.42-10.58-5.11-13.22-11.89-10.97-28.19-16.96-29.82-42.4-13.22-5.79,3.78-9.9,9.1-14.8,13.65-19.96,18.5-21.62,54.45-56.67,58.71-4.21.51-7.95,4.87-5.4,10.32,2.3,4.91,6.96,5.18,11.66,4.6,16.87-2.08,33.73-4.21,52.37-6.54-6.19,22.85-28.21,29.21-36.49,50.85-15.05,39.36-22.05,78.58-20.4,118.85,2.38,57.84,21.24,110.97,66.32,150.65,53.7,47.26,118.61,61.05,188.13,55.56,85.58-6.76,150.35-45.22,187.68-124.99,51.9-110.87-.6-249.78-111.91-289.45ZM313.45,421.78c-46.94-.65-81.58-36.97-80.99-84.89.63-51.31,33.02-83.11,84.26-82.74,49.82.36,81.43,33.93,81,86-.39,47.29-36.53,82.29-84.28,81.63Z"/>
        <path class="cls-1" d="M90.96,211.35c-2.77-10.87-13.45-5.35-20.89-2.52-14.44,5.5-29.01,9.32-46.64,8.5,8.54-15.11,24.75-16.13,33.63-28.84-20.34-6.74-36.83,2.33-53.03,27.36-2.43,3.76-5.54,7.4-3.2,12.31,3.01,6.32,9.06,5.71,13.78,4.14,19.53-6.53,39.91-7.79,60.02-10.79,7.05-1.05,18.84-.32,16.33-10.15Z"/>
      </g>
      <g>
        <path class="cls-1" d="M2705.43,431.74c-.88-7.1-6.09-3.15-9.81-4.07-11.15-2.76-33.21,7.69-25.74-20.21,1.67-6.25-6.94-5.77-12.06-4.91-21.01,3.53-41.52,3.62-60.93-7.02-5.07-2.78-10.29-.57-14.97,1.79-13.67,6.88-27.92,16.79-30.48-10.25-.3-3.18-5.83-8-9.36-8.42-21.02-2.47-15.52-11.92-7.19-23.14,2.57-3.46,4.27-7.8,5.48-11.99,6.4-22.25,13.08-24.63,29.81-10.26,27.87,23.93,68.32,20.21,85.9-7.99,4.91-7.88,9.91-17.59-.99-23.05-14.54-7.29-21-32.58-45.55-19.78-5.36,2.8-17.44-1.06-22.97-5.82-16.51-14.2-24.57-2.64-26.64,9.88-3.67,22.19-15.92,22.76-32.77,18.13q-3.77,11.67,1.13,25.32c-17.37-4.88-18.38-10.33-6.53-35.13,0,0,0,0,0,0,3.68-13.25,11.69-23.7,21.29-33.26,6.48-6.45,17.1-10.14,16-21.88-.14-1.46-3.13-3.91-4.64-3.79-11.69.93-13.95,11.87-19.87,19.03-5.49,6.64-13.42,20.89-18.19,16.44-18.42-17.17-33.04-2.54-45.87,4.39-14.72,7.95-18.76,4.57-23.53-8.87-13.33-37.62-28.42-74.64-40.95-112.51-5.75-17.39-15.5-22.91-32.88-22.39-32.8.98-65.66.02-98.47.78-11.94.28-27.4-3.57-32.62,12.3-5.79,17.59-11.32,36.09,6.5,51.42,4.65,4,12.05,7.99,6.75,16.32-4.36,6.86-11.44,7.16-17.96,5.02-16.38-5.38-22.95,3.33-27.91,16.84-35.7,97.2-71.25,194.45-107.89,291.3-6.86,18.12-1.02,20.57,15.44,22.06,38.77,3.52,77.42-4.75,116.12.3,9.49,1.24,14.81-4.96,17.42-13.87,4.36-14.87,9.11-29.64,13.72-44.44,3.92-12.57,14.12-23.02,23.44-10.83,14.86,19.44,33.17,16.35,52.05,16.44,37.8.16,38.02-.03,52.82,35.98,3.94,9.58,8.07,17.23,20.14,17.17,41.03-.23,82.07-.08,123.1-.26,12.15-.05,15.74-5.1,10.64-17.02-7.26-17.01-13.66-34.43-19.48-51.99-2.87-8.66-12.9-17.88-5.84-26.44,8.33-10.09,21.83-7.37,33.6-5.06,5.79,1.13,11.27,3.76,16.94,5.57,25.95,8.29,51.95,16.42,77.85,24.84,7.82,2.54,16.92,4.06,15.59-7.03-3.02-25.14,8.35-33.54,31.65-32.18,3.89.23,9.51-1.01,8.7-7.46ZM2339.15,398c-49.98,2-50.3,2.26-35.29-44.96,5.77-18.14,8.72-37.35,19.47-56.04,9.77,29.59,18.84,57.4,28.15,85.12,3.96,11.78,0,15.39-12.33,15.88Z"/>
        <path class="cls-1" d="M2217.46,87.52c10.67,7.34,65.28-.32,72.1-10.81,4.8-7.38,10.39-8.12,17.31-4.95,8.92,4.08,17.38,9.18,26.41,12.97,50.9,21.36,94-4.51,95.91-57.37q.89-24.7-24.48-24.79c-11.36-.03-22.72.06-34.08.11-6.06.03-12.72-.64-15.37,6.58-7.02,19.17-19.01,12.02-30.85,6.05-6.73-3.39-13.16-7.58-20.19-10.18-51.15-18.91-97.21,16.7-91.39,70.39.49,4.49.38,9.08,4.62,12Z"/>
        <path class="cls-1" d="M2521.27,312.98c-.92-.15-.7-.8-.51-2.13.71-5.06,3.93-7.87,8.25-9.86-4.83-1.68-4.26-6.31-5.48-9.96,0,0,0,0,0,0-3.1,7.01.22,15.04-4.26,21.83-.45,2.89,5,.6,2,.11Z"/>
      </g>
      <path class="cls-1" d="M1631.58,543.43c-49.55-133.03-99.27-265.99-148.62-399.1-3.94-10.63-10.7-12.33-20.69-12.23-40.13.4-80.28.78-120.38-.19-13.39-.32-18.37,5.21-22.23,16.64-7.7,22.75-16.87,45.01-25.27,67.53-41.19,110.39-82.32,220.79-124.56,334.11,41.05,0,79.02-2.12,116.62.7,27.59,2.07,42.6-5.93,46.27-33.51,2.05-15.37,10.99-20.09,26.67-19.08,24.13,1.55,48.63,2.31,72.61-.12,24.66-2.5,37.41,5.79,42.32,29.91,1.67,8.19,1.3,21.71,14.96,21.85,47.43.5,94.87.19,142.36.19,0-3.78.42-5.41-.06-6.7ZM1428.56,403.46c-17.34-.37-34.71-.42-52.05.04-11.68.31-11.81-4.48-8.72-13.81,10.78-32.56,20.82-65.37,31.14-98.08,1.71-.03,3.43-.06,5.14-.09,11.03,33.07,22.05,66.14,33.08,99.21,2.64,7.92,1.7,12.95-8.59,12.73Z"/>
    </g>
  </g>
</svg>