<?xml version="1.0" encoding="UTF-8"?>
<svg id="Layer_1" xmlns="http://www.w3.org/2000/svg" version="1.1" viewBox="0 0 800 800">
  <!-- Generator: Adobe Illustrator 30.3.0, SVG Export Plug-In . SVG Version: 2.1.3 Build 182)  -->
  <path d="M153.7,111.2c24.7,20.2,34.1,18.8,80.9,15.6l440.5-26.4c9.4,0,1.6-9.4-1.6-11l-73.2-52.9c-13.9-10.9-32.7-23.3-68.5-20.3L105.4,47.5c-15.6,1.4-18.8,9.2-12.5,15.5l60.8,48.2ZM180.1,214v463.4c0,24.9,12.4,34.3,40.4,32.7l484.1-28c28-1.6,31.2-18.6,31.2-38.9V182.8c0-20.3-7.8-31.1-25-29.6l-505.8,29.6c-18.8,1.6-24.9,10.8-24.9,31h0ZM658,238.7c3.1,14.1,0,28-14.1,29.7l-23.3,4.7v342c-20.3,10.9-38.9,17.2-54.4,17.2-25,0-31.2-7.8-49.9-31.1l-152.6-239.6v231.8l48.3,10.9s0,28-38.9,28l-107.4,6.2c-3.1-6.2,0-21.9,10.9-24.9l28-7.8v-306.4l-38.9-3.1c-3.1-14.1,4.7-34.2,26.4-35.8l115.2-7.8,158.9,242.7v-214.7l-40.5-4.7c-3.1-17.1,9.3-29.6,24.9-31l107.4-6.4ZM69.6,5.5l443.6-32.7c54.4-4.7,68.5-1.6,102.7,23.3l141.7,99.6c23.3,17.1,31.1,21.7,31.1,40.4v546c0,34.3-12.5,54.4-56,57.6l-515.4,31.1c-32.6,1.6-48.2-3.1-65.4-24.9l-104.3-135.4c-18.6-24.9-26.4-43.5-26.4-65.2V60c0-28,12.5-51.3,48.3-54.4h0Z"/>
</svg>