<?xml version="1.0" encoding="UTF-8"?>
<svg id="Layer_1" data-name="Layer 1" xmlns="http://www.w3.org/2000/svg" viewBox="0 0 73.82 26.65">
  <defs>
    <style>
      .cls-1 {
        fill: #fff;
      }
    </style>
  </defs>
  <path class="cls-1" d="M5.12,4.12h-1.68v5.15h-1.72v-5.11H0v-.86h5.12v.83Z"/>
  <path class="cls-1" d="M13.01,9.26h-1.69v-2.57h-2.54v2.57h-1.74V3.29h1.69v2.54h2.57v-2.54h1.72v5.98Z"/>
  <path class="cls-1" d="M19.36,9.26h-5.12v-.84h1.69v-4.27h-1.69v-.86h5.12v.83h-1.69v4.28h1.69v.86Z"/>
  <path class="cls-1" d="M26.21,8.4h-.82v.86h-4.3v-.82h-.86v-.86h1.72v.82h2.54v-1.67h-3.4v-.86h-.86v-1.72h.82v-.86h3.44v.82h.86v.86h-1.69v-.82h-1.72v1.66h3.41v.88h.85v1.72Z"/>
  <path class="cls-1" d="M27.43,9.42c0-.44.3-.76.72-.76s.71.31.71.76-.28.76-.72.76c-.42,0-.71-.32-.71-.76Z"/>
  <path class="cls-1" d="M20.23,21.08h-.82v.86h-3.44v1.72h-1.72v-5.98h5.12v.82h.85v2.58ZM18.52,21.08v-2.53h-2.54v2.53h2.54Z"/>
  <path class="cls-1" d="M26.83,22.8h-.82v.86h-4.3v-.82h-.86v-4.3h.82v-.86h4.31v.82h.85v4.3ZM25.12,22.8v-4.25h-2.54v4.25h2.54Z"/>
  <path class="cls-1" d="M33.43,21.1h-1.72v.83h.86v.88h.85v.86h-2.54v-.8h-.85v-.9h-.86v1.7h-1.72v-5.98h5.12v.83h.85v2.58ZM31.72,20.23v-1.68h-2.54v2.54h1.72v-.86h.83Z"/>
  <path class="cls-1" d="M38.75,18.52h-1.68v5.15h-1.72v-5.11h-1.73v-.86h5.12v.83Z"/>
  <path class="cls-1" d="M46.63,18.52h-4.24v1.69h3.38v.86h-3.38v2.59h-1.74v-5.98h5.98v.83Z"/>
  <path class="cls-1" d="M53.23,22.8h-.82v.86h-4.3v-.82h-.86v-4.3h.82v-.86h4.31v.82h.85v4.3ZM51.51,22.8v-4.25h-2.54v4.25h2.54Z"/>
  <path class="cls-1" d="M58.55,23.66h-5.12v-5.98h1.69v5.11h3.43v.86Z"/>
  <path class="cls-1" d="M66.18,23.66h-5.12v-.84h1.69v-4.27h-1.69v-.86h5.12v.83h-1.69v4.28h1.69v.86Z"/>
  <path class="cls-1" d="M73.03,22.8h-.82v.86h-4.3v-.82h-.86v-4.3h.82v-.86h4.31v.82h.85v4.3ZM71.31,22.8v-4.25h-2.54v4.25h2.54Z"/>
</svg>