<?xml version="1.0" encoding="UTF-8"?>
<svg id="Layer_2" data-name="Layer 2" xmlns="http://www.w3.org/2000/svg" viewBox="0 0 225.88 225.88">
  <defs>
    <style>
      .cls-1 {
        fill: #fff;
      }

      .cls-2 {
        fill: #0090c7;
      }
    </style>
  </defs>
  <g id="Layer_1-2" data-name="Layer 1">
    <circle class="cls-2" cx="112.94" cy="112.94" r="112.94"/>
    <path id="path14" class="cls-1" d="M171.01,158.69c-.63-2.53-2.96-4.28-5.59-4.21l-2.24.28c-2.86.72-5.78,1.18-8.73,1.38-5.59.28-6.49-1.88-6.88-8.03v-83.85c-.17-1.97-1.14-3.79-2.69-5.03l-.56-.39c-.17-.16-.36-.31-.56-.44-6-2.83-12.33-4.93-18.86-6.26h-.44c-8.13-2-16.47-3.06-24.84-3.15-3.74,0-7.47.2-11.19.61-5.67.63-11.28,1.69-16.78,3.16-2.43.48-4.25,2.48-4.48,4.93.42,2.2,1.02,4.37,1.79,6.48,1.12,3.43,2.35,4.26,4.53,4.7,2.73-.07,5.45-.42,8.11-1.05,4.57-.9,9.21-1.46,13.88-1.66,4.91-.16,9.83.08,14.71.72,5.46.46,10.73,2.19,15.39,5.04v32.6h-1.01l-23.67.55c-31.61.84-46.04,13.51-46.04,38.25-.64,9.89,3.17,19.56,10.41,26.4,7.66,5.94,17.25,8.93,26.97,8.42,12.73.07,25.08-4.32,34.86-12.4l1-.78.56,1.17c2.3,5.56,7.18,9.68,13.09,11.07,3.22.79,6.53,1.17,9.85,1.11.98.06,1.97.06,2.96,0,4.76-.43,9.41-1.65,13.76-3.6,2.91-1.38,5.04-3.1,4.87-6.14-.47-3.23-1.2-6.41-2.18-9.52M126.65,151.38l-.45.33-.45.28c-8.75,5.51-18.89,8.5-29.26,8.63-14.1-.28-19.24-5.53-19.58-18.71.34-15.5,5.59-20.26,23.22-21.36l24.39-1.17h2.13v32"/>
  </g>
</svg>