<?xml version="1.0" encoding="UTF-8"?>
<svg id="Layer_2" data-name="Layer 2" xmlns="http://www.w3.org/2000/svg" viewBox="0 0 110 110">
  <defs>
    <style>
      .cls-1 {
        fill: #fff;
      }
    </style>
  </defs>
  <g id="Express">
    <rect class="cls-1" width="110" height="110"/>
    <path id="path12" d="M107.47,83.81c-3.16,1.2-6.72-.16-8.29-3.15-4.76-7.12-10.01-13.92-15.05-20.86l-2.19-2.92c-6.01,8.05-12.02,15.78-17.51,23.81-1.48,2.86-4.85,4.18-7.88,3.09l22.55-30.26-20.98-27.34c3.11-1.12,6.59.1,8.32,2.92,4.87,7.12,10.27,13.92,15.64,21.12,5.4-7.15,10.74-13.98,15.73-21.04,1.49-2.82,4.85-4.07,7.82-2.92l-8.14,10.8c-3.65,4.81-7.24,9.66-11.03,14.35-1.2,1.07-1.3,2.92-.23,4.12.07.08.15.16.23.23,6.97,9.25,13.89,18.53,21.01,28.04Z"/>
    <path id="path16" d="M2.53,53.15c.61-2.92.99-6.1,1.84-9.07,5.05-17.94,25.62-25.41,39.77-14.3,8.29,6.51,10.36,15.73,9.95,26.11H7.4c-.76,18.56,12.63,29.76,29.76,24.04,5.64-2.02,9.89-6.75,11.29-12.57.9-2.92,2.36-3.41,5.13-2.57-.93,7.2-5.1,13.57-11.32,17.3-10.41,5.69-23.3,4.05-31.95-4.08-4.17-4.69-6.69-10.61-7.18-16.86,0-.99-.38-1.98-.58-2.92-.02-1.73-.03-3.42-.03-5.08ZM7.46,51.89h42.22c-.26-13.45-8.75-22.99-20.07-23.08-12.6-.18-21.62,9.16-22.17,23.02l.03.06Z"/>
  </g>
</svg>