<?xml version="1.0" encoding="UTF-8"?>
<svg id="Layer_1" xmlns="http://www.w3.org/2000/svg" version="1.1" viewBox="0 0 1405.1 1857.1">
  <!-- Generator: Adobe Illustrator 30.3.0, SVG Export Plug-In . SVG Version: 2.1.3 Build 182)  -->
  <defs>
    <style>
      .st0 {
        fill: #fff;
        stroke: #000;
        stroke-miterlimit: 10;
      }
    </style>
  </defs>
  <path class="st0" d="M305.9.5c-17.3,2.8-38.1,11.9-52.8,23.1-44.4,33.7-78.8,105.3-93.3,194.5-5.5,33.7-9.2,80.5-9.2,116.3s4.9,96,12,133.2c1.6,8.3,2.4,15.6,1.7,16.1-.5.5-7.1,5.9-14.4,11.7-25.1,20-53.7,50.8-73.5,78.9-37.9,53.7-62.4,114.8-72.7,180.9-4,26.1-5.1,78.9-1.9,105.1,7.1,60.3,25.2,111.2,56.3,157.9l10.1,15.1-2.9,4.9c-20.8,34.9-38.5,85.5-46.8,134-6.5,38.4-7.3,48.7-7.3,100.1s.7,62.1,6.8,98c7.3,42.9,22.3,88.4,38.9,118.7,5.5,9.9,18.8,30.4,20.4,31.5.5.3-1.1,5.2-3.6,10.9-19.2,42-35.6,97.9-42.4,144.9-4.8,32.3-5.5,42.7-5.5,76.7s2.4,64.4,11.5,98.9l1.3,5.1h114.3l-3.7-7.1c-23.1-42.7-25.2-121.9-5.3-200.9,9.1-36.5,19.3-63.3,38.5-100.3l11.5-22.4v-13.7c0-12.8-.3-14.3-4.4-22.7-3.2-6.4-7.5-11.9-15.1-19.3-12.9-12.5-22.3-25.7-29.7-42-32.8-71.2-39.2-176.9-16.1-267.1,9.6-37.6,25.5-71.1,42.1-89.3,11.3-12.5,17.2-26.5,17.2-41.1s-5.3-27.5-17.3-40.4c-34.4-36.8-55.6-81.6-63.2-133.7-10.8-74.3,8.8-155.2,53.3-219.3,43.6-62.9,104.8-103.3,173.2-114.1,15.3-2.5,44-2.1,60,.8,17.5,3.1,28.4,2.1,39.6-3.2,13.9-6.5,20.8-14.7,28.9-33.3,7.2-16.7,12.8-25.7,27.9-44.5,18.1-22.5,35.6-37.9,63.6-56.4,32-20.9,68.4-36.1,104.7-43.5,13.2-2.7,19.3-3.1,44-3.1s30.8.4,44,3.1c53.2,10.8,106,38.3,148.1,77.2,9.1,8.4,30.8,35.3,37.7,46.5,2.7,4.4,7.3,13.7,10.3,20.7,8.1,18.7,15.1,26.8,28.9,33.3,10.8,5.2,22.1,6.3,38.9,3.5,26.5-4.5,46.9-4.1,72.9,1.2,88.5,17.9,165.6,90.8,199.7,188.5,29.7,85.7,21.3,175.5-22.9,244-7.5,11.6-14.9,20.9-25.7,32.4-23.3,24.9-23.3,55.9-.1,81.5,38.1,41.7,62,144.4,54.8,234.9-4.8,59.7-20.1,113.2-41.2,143.5-3.7,5.3-11.5,14.4-17.3,20-7.6,7.5-11.9,12.9-15.1,19.3-4.1,8.4-4.4,9.9-4.4,22.7v13.7l11.5,22.4c19.2,36.9,29.5,63.7,38.5,100.3,19.6,78,17.9,155.6-4.5,199.7-1.9,3.7-3.5,7.2-3.5,7.6s25.5.7,56.7.7h56.5l1.5-5.7c.8-3.1,2.1-7.7,2.8-10.4,1.5-5.9,4.4-23.2,6.8-39.9,2.3-16.8,2.3-78.7,0-97.3-8.5-67.7-22.8-121.5-46.1-172.3-2.5-5.7-4.1-10.7-3.6-10.9.7-.4,4.4-5.7,8.4-11.7,29.1-44,46.9-99.3,56-172.4,2.4-20.1,2.4-106.7,0-126-6.4-49.9-14.1-83.7-26.9-118-5.3-14.3-19.5-44.4-25.5-54.1l-2.9-4.9,10.1-15.1c31.1-46.7,49.2-97.6,56.3-157.9,3.2-26.1,2.1-78.9-1.9-105.1-10.4-66.3-34.8-127.1-72.7-180.9-19.7-28.1-48.4-58.9-73.5-78.9-7.3-5.9-13.9-11.2-14.4-11.7-.7-.5.1-7.9,1.7-16.1,16.1-84.1,15.6-189.1-1.3-271.1-14.7-71.5-41.3-128.3-75.7-161.1-27.5-26.1-55.5-37.3-89.1-35.2-77.1,4.5-139.2,93.2-163.7,232.9-4,22.5-7.5,48.9-7.5,56.1s-.5,5.1-1.2,5.1-5.9-2.7-11.5-6c-59.5-35.2-125.6-54-190-54s-130.5,18.8-190,54c-5.6,3.3-10.8,6-11.5,6s-1.2-2.3-1.2-5.1c0-7.5-3.6-34.7-7.5-56.1C470.1,107.7,419.1,24.7,351.2,3.7c-9.3-2.8-35.9-4.7-45.3-3.2ZM328.5,109.1c19.2,15.2,40.5,58.7,52.8,107.3,2.3,8.8,4.7,18.9,5.3,22.7.5,3.6,2,11.7,3.2,18,5.2,28.3,7.6,58.8,7.9,96v36.7c.1,0-9.1,13.6-9.1,13.6l-9.2,13.7h-21.5c-25.1,0-50,3.2-73.9,9.6-8.5,2.1-16.8,4.3-18.4,4.7-2.5.5-2.9-.3-4.4-11.2-7.9-59.3-7.5-125.1,1.2-179.7,9.6-60.9,32-116.1,53.9-132.4,5.2-3.9,6.1-3.7,12.1,1.1ZM1088.8,108.1c13.2,9.7,27.7,35.6,38.5,68.7,21.7,66.1,27.9,156.9,16.4,243.3-1.5,10.9-1.9,11.7-4.4,11.2-1.6-.4-9.9-2.5-18.4-4.7-23.9-6.4-48.8-9.6-73.9-9.6h-21.5l-9.2-13.7-9.2-13.6v-36.7c.4-51.7,5.2-92.1,16.7-137.1,12.1-48.3,33.6-91.7,52.7-106.9,6-4.8,6.9-4.9,12.3-.9Z"/>
  <path class="st0" d="M681.9,779.2c-28.9,2.8-36.8,3.9-50.7,6.7-22.5,4.7-52.7,15.1-73.6,25.3-72.8,35.6-122.9,94.9-138.3,163.6-3.1,13.6-3.5,18.1-3.5,41.1s.4,27.6,3.3,40.5c20.4,89.7,103.1,156,210,168.1,23.2,2.5,123.5,2.5,146.7,0,85.9-9.7,159.7-56.3,192.9-121.6,8.8-17.5,13.1-28.8,17.1-46.5,2.9-12.9,3.3-17.9,3.3-40.5s-.4-27.5-3.5-41.1c-22.3-99.7-119.1-178.3-237.7-193.2-15.5-1.9-56-3.5-66.1-2.4ZM731.7,851.7c39.6,4.3,79.5,18.4,111.5,39.7,17.2,11.5,41.5,35.5,51.9,51.2,12.8,19.5,20.1,39.3,23.5,63.5,1.5,11.1.7,19.5-3.3,37.3-6.3,26.7-25.7,54.5-52,74-12.3,8.9-37.7,21.9-53.3,26.9-29.6,9.5-48.9,11.2-118,10.7-45.1-.4-53.1-.8-66-3.2-44.1-8.3-79.1-25.9-104.4-52.7-20.5-21.6-29.9-41.3-34.9-73.2-2.3-14.8,2-39.3,10.7-60,10.5-25.2,37.7-56.5,64.7-74.5,31.2-20.8,72.3-35.6,110-39.6,14.5-1.6,45.3-1.6,59.9-.1Z"/>
  <path class="st0" d="M651.6,949.1c-10.1,5.5-17.2,19.3-15.1,29.6,2.4,11.1,12.1,22.3,27.3,31.5,8.1,4.9,8.7,5.6,9.1,10.5.3,2.9-.8,11.3-2.3,18.8-1.6,7.3-2.8,15.1-2.8,17.2.1,5.7,5.5,15.1,11.1,19.6,4.9,4,5.9,4.1,19.7,4.5,12.7.4,15.3.1,20.4-2.3,13.1-6.4,16.4-18.1,11.6-40.7-4-18.8-3.2-21.7,6.8-27.5,10.5-6.1,21.7-16.9,25.1-24.3,6.4-14,.5-29.9-13.6-37.2-3.5-1.7-7.7-2.5-14-2.5-9.7,0-16,2.3-27.5,9.6l-6.5,4.1-4.1-2.5c-16.9-10-20-11.2-30.3-11.1-7.3,0-11.3.7-14.9,2.5Z"/>
  <path class="st0" d="M327.9,794.3c-23.6,7.5-41.2,24.8-50.3,49.5-4.4,11.7-6.5,30.3-4.7,40.3,4.4,23.9,24,45.6,46.3,51.6,28,7.3,48.9,2.5,67.5-15.9,10.8-10.5,16.7-19.7,22.5-34.7,4.3-10.5,4.5-12.4,4.5-27.3v-16c.1,0-5.5-11.5-5.5-11.5-8.9-18.1-25.1-31.6-43.7-36.5-10.5-2.7-27.5-2.5-36.7.5Z"/>
  <path class="st0" d="M1040,793.9c-18.3,4.9-34.5,18.5-43.2,36.4l-5.6,11.5v16c.1,14.9.4,16.8,4.7,27.3,5.9,14.9,11.7,24.1,22.5,34.7,18.5,18.4,39.5,23.2,67.5,15.9,16.1-4.3,32.3-17.9,40-33.7,6.7-13.5,8.3-23.2,6.1-38.5-4.9-35.1-25.5-60.5-56-69.5-8.9-2.7-26.3-2.7-36,0Z"/>
</svg>