<?xml version="1.0" encoding="UTF-8"?>
<svg id="Layer_1" data-name="Layer 1" xmlns="http://www.w3.org/2000/svg" xmlns:xlink="http://www.w3.org/1999/xlink" viewBox="0 0 58.5 55">
  <defs>
    <style>
      .cls-1 {
        fill: none;
      }

      .cls-2 {
        fill: #eb6d4a;
      }

      .cls-3 {
        clip-path: url(#clippath);
      }
    </style>
    <clipPath id="clippath">
      <rect class="cls-1" width="58.5" height="55"/>
    </clipPath>
  </defs>
  <g class="cls-3">
    <g>
      <path class="cls-2" d="M52.73,30.15c-.67-.03-1.35,0-2.02,0q-2.75,0-2.69-2.79c.12-3.23-.46-6.45-1.71-9.44-1.24-2.99-3.11-5.67-5.49-7.86v-.03l-.49-.44c-2.47-2.17-5.39-3.77-8.55-4.69-3.16-.92-6.48-1.14-9.73-.63-3.25.5-6.35,1.71-9.09,3.54-2.73,1.83-5.03,4.24-6.73,7.05l-.04.06c-.12.2-.24.4-.35.59-2.19,3.87-3.18,8.31-2.83,12.75.04.74.55,1.83-.95,1.93-1.29.09-2.26.73-2.04,2.2.23,1.47,1.35,1.65,2.61,1.65,1.95-.04,3.91,0,5.86,0,1.25,0,2.16.51,2.2,1.83.04,1.2-.73,1.86-1.91,1.88-1.47,0-2.43.68-2.31,2.16s1.33,1.65,2.57,1.62c3.5-.03,7.01-.03,10.52,0,1.29,0,2.25.55,2.17,2.05-.07,1.37-.96,1.8-2.2,1.8h-6.47c-1.37,0-2.71.07-2.72,1.87s1.35,1.86,2.72,1.85h31.34c1.29,0,2.35-.24,2.39-1.77.04-1.65-1.1-1.98-2.44-1.95h-11.32c-1.27,0-2.11-.55-2.15-1.87-.04-1.32.84-1.89,2.07-1.98.4-.03.81,0,1.21,0,1.23,0,2.38-.14,2.48-1.69.11-1.65-.99-2.04-2.35-2.05-1.24-.07-1.96-.79-1.96-1.89,0-1.25.82-1.92,2.13-1.89h18.21c1.33,0,2.28-.42,2.32-1.9s-1-1.92-2.27-1.97Z"/>
      <circle class="cls-2" cx="51.95" cy="39.64" r="1.85"/>
      <circle class="cls-2" cx="56.63" cy="39.64" r="1.85"/>
      <rect class="cls-2" x="51.76" y="37.78" width="4.98" height="3.71"/>
      <circle class="cls-2" cx="41.02" cy="39.64" r="1.85"/>
      <circle class="cls-2" cx="45.7" cy="39.64" r="1.85"/>
      <rect class="cls-2" x="40.83" y="37.78" width="4.98" height="3.71"/>
    </g>
  </g>
</svg>